<svg width="24" height="24" viewBox="0 0 24 24" fill="none" xmlns="http://www.w3.org/2000/svg">
<path d="M4 12.001C4 12.2662 4.10536 12.5205 4.29289 12.7081C4.48043 12.8956 4.73478 13.001 5 13.001C5.26522 13.001 5.51957 12.8956 5.70711 12.7081C5.89464 12.5205 6 12.2662 6 12.001C6 11.7358 5.89464 11.4814 5.70711 11.2939C5.51957 11.1063 5.26522 11.001 5 11.001C4.73478 11.001 4.48043 11.1063 4.29289 11.2939C4.10536 11.4814 4 11.7358 4 12.001Z" fill="#9CA3AF" stroke="#9CA3AF" stroke-width="2.25" stroke-linecap="round" stroke-linejoin="round"/>
<path d="M11 12.001C11 12.2662 11.1054 12.5205 11.2929 12.7081C11.4804 12.8956 11.7348 13.001 12 13.001C12.2652 13.001 12.5196 12.8956 12.7071 12.7081C12.8946 12.5205 13 12.2662 13 12.001C13 11.7358 12.8946 11.4814 12.7071 11.2939C12.5196 11.1063 12.2652 11.001 12 11.001C11.7348 11.001 11.4804 11.1063 11.2929 11.2939C11.1054 11.4814 11 11.7358 11 12.001Z" fill="#9CA3AF" stroke="#9CA3AF" stroke-width="2.25" stroke-linecap="round" stroke-linejoin="round"/>
<path d="M18 12.001C18 12.2662 18.1054 12.5205 18.2929 12.7081C18.4804 12.8956 18.7348 13.001 19 13.001C19.2652 13.001 19.5196 12.8956 19.7071 12.7081C19.8946 12.5205 20 12.2662 20 12.001C20 11.7358 19.8946 11.4814 19.7071 11.2939C19.5196 11.1063 19.2652 11.001 19 11.001C18.7348 11.001 18.4804 11.1063 18.2929 11.2939C18.1054 11.4814 18 11.7358 18 12.001Z" fill="#9CA3AF" stroke="#9CA3AF" stroke-width="2.25" stroke-linecap="round" stroke-linejoin="round"/>
</svg>
