<svg width="18" height="18" viewBox="0 0 18 18" fill="none" xmlns="http://www.w3.org/2000/svg">
<path d="M8.9999 2.45532C7.22232 2.45532 6.99924 2.4631 6.30108 2.49487C5.60428 2.52678 5.12866 2.6371 4.71249 2.79896C4.282 2.96614 3.91683 3.18978 3.55302 3.55373C3.18894 3.91755 2.96531 4.28273 2.79759 4.71309C2.63532 5.12941 2.52487 5.60519 2.49351 6.30173C2.46228 6.99991 2.4541 7.22314 2.4541 9.00078C2.4541 10.7784 2.46201 11.0008 2.49365 11.699C2.52569 12.3958 2.63601 12.8715 2.79773 13.2876C2.96504 13.7181 3.18867 14.0833 3.55261 14.4471C3.91628 14.8112 4.28146 15.0354 4.71167 15.2026C5.12811 15.3645 5.60387 15.4748 6.30053 15.5067C6.99869 15.5385 7.22164 15.5462 8.99908 15.5462C10.7768 15.5462 10.9992 15.5385 11.6974 15.5067C12.3942 15.4748 12.8703 15.3645 13.2868 15.2026C13.7171 15.0354 14.0817 14.8112 14.4454 14.4471C14.8095 14.0833 15.0331 13.7181 15.2009 13.2878C15.3618 12.8715 15.4722 12.3957 15.5049 11.6991C15.5363 11.001 15.5445 10.7784 15.5445 9.00078C15.5445 7.22314 15.5363 7.00005 15.5049 6.30187C15.4722 5.60505 15.3618 5.12941 15.2009 4.71323C15.0331 4.28273 14.8095 3.91755 14.4454 3.55373C14.0813 3.18964 13.7173 2.966 13.2864 2.79896C12.8691 2.6371 12.3932 2.52678 11.6964 2.49487C10.9983 2.4631 10.776 2.45532 8.99786 2.45532H8.9999ZM8.41274 3.63487C8.58701 3.63459 8.78145 3.63487 8.9999 3.63487C10.7475 3.63487 10.9546 3.64114 11.6447 3.6725C12.2829 3.70169 12.6292 3.80832 12.86 3.89791C13.1654 4.01655 13.3832 4.15837 13.6121 4.38746C13.8412 4.61655 13.983 4.83473 14.1019 5.14019C14.1915 5.37064 14.2983 5.717 14.3273 6.35519C14.3587 7.04519 14.3655 7.25246 14.3655 8.99928C14.3655 10.7461 14.3587 10.9534 14.3273 11.6434C14.2982 12.2815 14.1915 12.6279 14.1019 12.8584C13.9833 13.1638 13.8412 13.3813 13.6121 13.6103C13.383 13.8394 13.1655 13.9812 12.86 14.0998C12.6295 14.1898 12.2829 14.2962 11.6447 14.3254C10.9548 14.3567 10.7475 14.3635 8.9999 14.3635C7.25218 14.3635 7.04505 14.3567 6.35507 14.3254C5.71691 14.2959 5.37056 14.1893 5.1397 14.0997C4.83426 13.981 4.61608 13.8392 4.387 13.6101C4.15791 13.381 4.0161 13.1634 3.89719 12.8578C3.80761 12.6274 3.70084 12.281 3.67179 11.6428C3.64043 10.9528 3.63416 10.7455 3.63416 8.99764C3.63416 7.24973 3.64043 7.04355 3.67179 6.35355C3.70097 5.71537 3.80761 5.369 3.89719 5.13828C4.01583 4.83282 4.15791 4.61464 4.387 4.38555C4.61608 4.15646 4.83426 4.01464 5.1397 3.89573C5.37042 3.80573 5.71691 3.69937 6.35507 3.67005C6.95887 3.64278 7.19287 3.63459 8.41274 3.63323V3.63487ZM12.4937 4.72169C12.0601 4.72169 11.7083 5.07309 11.7083 5.50687C11.7083 5.9405 12.0601 6.29232 12.4937 6.29232C12.9273 6.29232 13.2791 5.9405 13.2791 5.50687C13.2791 5.07323 12.9273 4.72141 12.4937 4.72141V4.72169ZM8.9999 5.63941C7.14364 5.63941 5.63864 7.14446 5.63864 9.00078C5.63864 10.8571 7.14364 12.3615 8.9999 12.3615C10.8562 12.3615 12.3606 10.8571 12.3606 9.00078C12.3606 7.14446 10.856 5.63941 8.99977 5.63941H8.9999ZM8.9999 6.81896C10.2048 6.81896 11.1817 7.79573 11.1817 9.00078C11.1817 10.2057 10.2048 11.1826 8.9999 11.1826C7.79489 11.1826 6.81815 10.2057 6.81815 9.00078C6.81815 7.79573 7.79489 6.81896 8.9999 6.81896Z" fill="#6D7280"/>
</svg>
