<svg width="18" height="18" viewBox="0 0 18 18" fill="none" xmlns="http://www.w3.org/2000/svg">
<path fill-rule="evenodd" clip-rule="evenodd" d="M3.53 2.62561C3.03018 2.62561 2.625 3.03079 2.625 3.53061V14.4706C2.625 14.9704 3.03018 15.3756 3.53 15.3756H14.47C14.9698 15.3756 15.375 14.9704 15.375 14.4706V3.53061C15.375 3.03079 14.9698 2.62561 14.47 2.62561H3.53ZM5.48679 6.58513C6.09765 6.58513 6.59285 6.08993 6.59285 5.47907C6.59285 4.86821 6.09765 4.37301 5.48679 4.37301C4.87593 4.37301 4.38073 4.86821 4.38073 5.47907C4.38073 6.08993 4.87593 6.58513 5.48679 6.58513ZM7.60581 7.40254H9.43891V8.24229C9.43891 8.24229 9.93634 7.24742 11.2898 7.24742C12.4971 7.24742 13.4973 7.84218 13.4973 9.65507V13.4779H11.5977V10.1183C11.5977 9.04886 11.0267 8.93124 10.5917 8.93124C9.68875 8.93124 9.53417 9.71006 9.53417 10.2578V13.4779H7.60581V7.40254ZM6.45097 7.40254H4.52261V13.4779H6.45097V7.40254Z" fill="#6D7280"/>
</svg>
