<svg width="14" height="14" viewBox="0 0 14 14" fill="none" xmlns="http://www.w3.org/2000/svg">
<path d="M12.7181 2.84105C13.3592 2.45777 13.8389 1.85426 14.0676 1.14319C13.4652 1.50064 12.8061 1.75244 12.1188 1.8877C11.1658 0.879664 9.65601 0.634347 8.43296 1.28884C7.20992 1.94333 6.57641 3.33559 6.88644 4.68766C4.41877 4.56377 2.1197 3.39811 0.561333 1.48076C-0.25195 2.88354 0.163653 4.67678 1.5111 5.57879C1.02385 5.56313 0.547401 5.43118 0.121493 5.19401V5.23264C0.121771 6.69384 1.15163 7.95257 2.58388 8.24215C2.13193 8.36509 1.65786 8.38319 1.19785 8.29508C1.60064 9.54472 2.75235 10.4008 4.06504 10.4263C2.97783 11.2796 1.63517 11.7424 0.253087 11.7401C0.0081138 11.7405 -0.236666 11.7264 -0.47998 11.6979C0.923497 12.5998 2.55697 13.0785 4.22524 13.0768C6.54623 13.0928 8.77668 12.1778 10.4178 10.5365C12.059 8.89519 12.9738 6.66459 12.9577 4.34366C12.9577 4.21063 12.9546 4.07832 12.9484 3.94673C13.5495 3.51232 14.0682 2.97418 14.4803 2.35758C13.9203 2.60579 13.3264 2.76875 12.7181 2.84105Z" fill="#6D7280"/>
</svg>
