<svg width="14" height="14" viewBox="0 0 14 14" fill="none" xmlns="http://www.w3.org/2000/svg">
<path d="M12.7176 2.84105C13.3587 2.45777 13.8384 1.85426 14.0672 1.14319C13.4648 1.50064 12.8056 1.75244 12.1183 1.8877C11.1654 0.879664 9.65552 0.634347 8.43247 1.28884C7.20943 1.94333 6.57592 3.33559 6.88595 4.68766C4.41828 4.56377 2.11921 3.39811 0.560845 1.48076C-0.252438 2.88354 0.163165 4.67678 1.51061 5.57879C1.02336 5.56313 0.546913 5.43118 0.121004 5.19401V5.23264C0.121283 6.69384 1.15114 7.95257 2.5834 8.24215C2.13144 8.36509 1.65737 8.38319 1.19736 8.29508C1.60016 9.54472 2.75186 10.4008 4.06455 10.4263C2.97734 11.2796 1.63468 11.7424 0.252599 11.7401C0.00762552 11.7405 -0.237155 11.7264 -0.480469 11.6979C0.923009 12.5998 2.55648 13.0785 4.22475 13.0768C6.54574 13.0928 8.77619 12.1778 10.4173 10.5365C12.0585 8.89519 12.9733 6.66459 12.9572 4.34366C12.9572 4.21063 12.9541 4.07832 12.9479 3.94673C13.549 3.51232 14.0677 2.97418 14.4798 2.35758C13.9198 2.60579 13.3259 2.76875 12.7176 2.84105Z" fill="#6D7280"/>
</svg>
