<svg width="24" height="24" viewBox="0 0 24 24" fill="none" xmlns="http://www.w3.org/2000/svg">
<path fill-rule="evenodd" clip-rule="evenodd" d="M12.8212 2.95834C15.05 3.06788 17.1268 3.98698 18.7131 5.57429C20.4051 7.26735 21.3364 9.51789 21.3355 11.9112C21.3335 16.8501 17.3128 20.8686 12.3736 20.8686C10.5162 20.8686 9.04027 20.2979 8.08722 19.7783L3.33636 21.0239L4.6078 16.3822C3.82354 15.0238 3.41086 13.4829 3.41151 11.9041C3.41349 6.96537 7.43381 2.94727 12.3735 2.94727L12.8212 2.95834ZM8.30731 18.1567L8.57936 18.3181C9.72301 18.9964 11.0339 19.3553 12.3706 19.3558H12.3736C16.4792 19.3558 19.8207 16.0159 19.8223 11.9107C19.8231 9.9214 19.049 8.05084 17.6427 6.64361C16.2363 5.23628 14.3661 4.46081 12.3766 4.46016C8.26782 4.46016 4.92628 7.79975 4.92464 11.9046C4.92408 13.3114 5.31787 14.6815 6.06351 15.8668L6.24062 16.1485L5.48812 18.8959L8.30731 18.1567ZM16.8885 14.0413C16.8326 13.9479 16.6833 13.8919 16.4594 13.7798C16.2355 13.6678 15.1345 13.1264 14.9293 13.0516C14.724 12.977 14.5747 12.9397 14.4255 13.1637C14.2762 13.3877 13.8471 13.8919 13.7164 14.0413C13.5858 14.1906 13.4552 14.2093 13.2313 14.0973C13.0073 13.9853 12.2858 13.7489 11.4305 12.9864C10.7648 12.3929 10.3154 11.66 10.1847 11.4359C10.0542 11.2119 10.1708 11.0907 10.2829 10.9792C10.3837 10.8788 10.5069 10.7177 10.6188 10.587C10.7308 10.4564 10.7681 10.363 10.8428 10.2136C10.9174 10.0642 10.8801 9.93359 10.8241 9.82155C10.7681 9.70947 10.3203 8.6078 10.1337 8.15965C9.9519 7.72326 9.76729 7.78234 9.62984 7.77544C9.49938 7.76898 9.34995 7.76756 9.2007 7.76756C9.0514 7.76756 8.8088 7.82353 8.60354 8.04765C8.39828 8.27168 7.8198 8.81322 7.8198 9.9148C7.8198 11.0165 8.62221 12.0807 8.73417 12.2301C8.84614 12.3795 10.3132 14.6401 12.5595 15.6097C13.0937 15.8403 13.5109 15.978 13.8361 16.0811C14.3725 16.2515 14.8606 16.2275 15.2465 16.1698C15.6767 16.1056 16.5713 15.6284 16.7579 15.1056C16.9445 14.5827 16.9445 14.1346 16.8885 14.0413Z" fill="#4B5563"/>
</svg>
