<svg width="14" height="14" viewBox="0 0 14 14" fill="none" xmlns="http://www.w3.org/2000/svg">
<path d="M7.00943 12.2021H6.99459C6.94856 12.2021 2.34358 12.1932 1.18176 11.8777C0.54289 11.7056 0.0439516 11.2063 -0.127798 10.5674C-0.336718 9.38876 -0.4376 8.19346 -0.429204 6.99652C-0.434601 5.79758 -0.330979 4.60065 -0.119631 3.42048C0.0568394 2.78093 0.55358 2.27941 1.19141 2.09682C2.32131 1.79987 6.79934 1.79987 6.98939 1.79987H7.00498C7.05175 1.79987 11.6686 1.80877 12.8185 2.12429C13.4561 2.29727 13.954 2.79547 14.1266 3.4331C14.3422 4.61611 14.4434 5.8171 14.4288 7.01953C14.434 8.21699 14.3301 9.41244 14.1185 10.5911C13.9445 11.2293 13.4453 11.7274 12.8067 11.8999C11.6783 12.1991 7.19948 12.2021 7.00943 12.2021ZM5.52467 4.77309L5.52096 9.22737L9.39024 7.00023L5.52467 4.77309Z" fill="#6D7280"/>
</svg>
