<svg width="40" height="40" viewBox="0 0 40 40" fill="none" xmlns="http://www.w3.org/2000/svg">
<path opacity="0.5" d="M29.9443 10.9302L26.895 7.88084C24.319 5.30496 23.0312 4.01701 21.3602 3.53778C19.6892 3.05853 17.9143 3.46809 14.3647 4.28723L12.3178 4.75961C9.3315 5.44874 7.83837 5.79333 6.8159 6.81578C5.79345 7.83824 5.44887 9.33138 4.75973 12.3177L4.28735 14.3646C3.46822 17.9142 3.05865 19.689 3.5379 21.36C4.01713 23.031 5.30508 24.319 7.88097 26.8949L10.9304 29.9442C15.412 34.4259 17.6528 36.6667 20.4373 36.6667C23.2218 36.6667 25.4627 34.4259 29.9443 29.9442C34.426 25.4625 36.6668 23.2217 36.6668 20.4372C36.6668 17.6527 34.426 15.4119 29.9443 10.9302Z" fill="#00BA8B"/>
<path d="M18.5785 23.8807C17.4569 22.7592 17.4664 21.1498 18.137 19.8745C17.8019 19.3875 17.8509 18.7158 18.2839 18.2828C18.7152 17.8513 19.3837 17.8012 19.8702 18.1325C20.4365 17.8313 21.0589 17.6722 21.6792 17.678C22.3695 17.6845 22.9239 18.2495 22.9174 18.9398C22.9107 19.6302 22.3459 20.1845 21.6555 20.178C21.3607 20.1752 20.9732 20.3075 20.6409 20.6398C19.995 21.2857 20.1649 21.9315 20.3462 22.113C20.5277 22.2943 21.1735 22.4642 21.8194 21.8183C23.126 20.5117 25.3822 20.0778 26.828 21.5237C27.9497 22.6453 27.9402 24.2547 27.2694 25.53C27.6045 26.017 27.5557 26.6887 27.1227 27.1217C26.6912 27.5532 26.0225 27.6032 25.536 27.2718C24.7745 27.6765 23.9084 27.8282 23.0824 27.6583C22.4062 27.5195 21.9707 26.8587 22.1095 26.1823C22.2485 25.5062 22.9094 25.0707 23.5857 25.2095C23.8809 25.2703 24.3569 25.1733 24.7657 24.7647C25.4115 24.1187 25.2417 23.4728 25.0602 23.2915C24.8789 23.11 24.233 22.9402 23.5872 23.5862C22.2804 24.8928 20.0242 25.3265 18.5785 23.8807Z" fill="#00BA8B"/>
<path d="M16.702 17.1552C18.0038 15.8535 18.0038 13.7429 16.702 12.4412C15.4003 11.1394 13.2898 11.1394 11.988 12.4412C10.6863 13.7429 10.6863 15.8535 11.988 17.1552C13.2898 18.457 15.4003 18.457 16.702 17.1552Z" fill="#00BA8B"/>
</svg>
