<svg width="40" height="40" viewBox="0 0 40 40" fill="none" xmlns="http://www.w3.org/2000/svg">
<path opacity="0.5" d="M15.9874 5.33389C15.5816 5.67974 15.3787 5.85268 15.1619 5.99795C14.6651 6.33095 14.1071 6.56206 13.5203 6.67791C13.2643 6.72846 12.9986 6.74966 12.467 6.79208C11.1313 6.89866 10.4635 6.95196 9.90635 7.14876C8.61768 7.60393 7.60405 8.61756 7.14888 9.90623C6.95208 10.4634 6.8988 11.1312 6.79222 12.4668C6.7498 12.9984 6.72858 13.2642 6.67803 13.5202C6.56218 14.107 6.33107 14.665 5.99807 15.1618C5.8528 15.3785 5.67985 15.5815 5.33397 15.9874C4.4649 17.0072 4.03033 17.517 3.77553 18.0502C3.18615 19.2834 3.18615 20.7167 3.77553 21.9499C4.03035 22.483 4.46488 22.9929 5.33395 24.0127C5.67977 24.4185 5.85282 24.6215 5.99807 24.8382C6.33107 25.335 6.56218 25.893 6.67803 26.4799C6.72858 26.7359 6.74978 27.0017 6.7922 27.5332C6.89878 28.8689 6.95208 29.5367 7.14888 30.0939C7.60405 31.3825 8.61768 32.3962 9.90635 32.8514C10.4635 33.048 11.1313 33.1014 12.4668 33.208C12.9984 33.2504 13.2643 33.2717 13.5203 33.3222C14.1071 33.438 14.6651 33.6692 15.1619 34.0022C15.3787 34.1474 15.5816 34.3204 15.9875 34.6662C17.0073 35.5354 17.5172 35.9699 18.0503 36.2247C19.2835 36.814 20.7168 36.814 21.95 36.2247C22.4832 35.9699 22.993 35.5354 24.0128 34.6662C24.4187 34.3204 24.6217 34.1474 24.8383 34.0022C25.3352 33.6692 25.8932 33.438 26.48 33.3222C26.736 33.2717 27.0018 33.2504 27.5333 33.208C28.8688 33.1014 29.5368 33.048 30.094 32.8514C31.3827 32.3962 32.3963 31.3825 32.8515 30.0939C33.0482 29.5367 33.1015 28.8689 33.2082 27.5334C33.2505 27.0019 33.2718 26.7359 33.3223 26.4799C33.4382 25.893 33.6693 25.335 34.0023 24.8382C34.1475 24.6215 34.3205 24.4185 34.6663 24.0127C35.5355 22.9929 35.97 22.483 36.2248 21.9499C36.8142 20.7167 36.8142 19.2834 36.2248 18.0502C35.97 17.517 35.5355 17.0072 34.6663 15.9874C34.3205 15.5815 34.1475 15.3786 34.0023 15.1618C33.6693 14.665 33.4382 14.107 33.3223 13.5202C33.2718 13.2642 33.2505 12.9984 33.2082 12.4668C33.1015 11.1313 33.0482 10.4634 32.8515 9.90623C32.3963 8.61756 31.3827 7.60393 30.094 7.14876C29.5368 6.95196 28.869 6.89868 27.5333 6.7921C27.0018 6.74968 26.736 6.72846 26.48 6.67791C25.8932 6.56206 25.3352 6.33095 24.8383 5.99795C24.6217 5.85268 24.4187 5.67973 24.0128 5.33383C22.993 4.46476 22.4832 4.03023 21.95 3.77541C20.7168 3.18603 19.2835 3.18603 18.0503 3.77541C17.5172 4.03021 17.0073 4.46483 15.9874 5.33389Z" fill="#00BA8B"/>
<path d="M27.2892 16.4383C27.8188 15.9085 27.8188 15.0497 27.2892 14.52C26.7593 13.9902 25.9005 13.9902 25.3708 14.52L17.287 22.6038L14.629 19.9456C14.0993 19.416 13.2405 19.416 12.7108 19.9456C12.181 20.4755 12.181 21.3343 12.7108 21.864L16.3279 25.4811C16.8577 26.0108 17.7165 26.0108 18.2462 25.4811L27.2892 16.4383Z" fill="#00BA8B"/>
</svg>
