<svg width="40" height="40" viewBox="0 0 40 40" fill="none" xmlns="http://www.w3.org/2000/svg">
<path opacity="0.5" d="M19.9997 36.6665C29.2043 36.6665 36.6663 29.2045 36.6663 19.9998C36.6663 10.795 29.2043 3.33313 19.9997 3.33313C10.7949 3.33313 3.33301 10.795 3.33301 19.9998C3.33301 29.2045 10.7949 36.6665 19.9997 36.6665Z" fill="#00BA8B"/>
<path fill-rule="evenodd" clip-rule="evenodd" d="M20 12.0831C20.6903 12.0831 21.25 12.6428 21.25 13.3331V19.482L25.0505 23.2826C25.5387 23.7708 25.5387 24.5621 25.0505 25.0503C24.5623 25.5385 23.771 25.5385 23.2828 25.0503L19.1162 20.8836C18.8817 20.6493 18.75 20.3313 18.75 19.9998V13.3331C18.75 12.6428 19.3097 12.0831 20 12.0831Z" fill="#00BA8B"/>
</svg>
