<svg width="40" height="40" viewBox="0 0 40 40" fill="none" xmlns="http://www.w3.org/2000/svg">
<mask id="mask0_178_296" style="mask-type:luminance" maskUnits="userSpaceOnUse" x="0" y="0" width="40" height="40">
<path d="M40 0H0V40H40V0Z" fill="white"/>
</mask>
<g mask="url(#mask0_178_296)">
<path fill-rule="evenodd" clip-rule="evenodd" d="M18.5672 7.0592C18.9232 7.0592 19.2627 7.20867 19.5027 7.47102L20.7358 8.819C21.2075 9.3345 21.171 10.1338 20.6542 10.6043C20.3953 10.84 20.0652 10.9485 19.7407 10.9333C19.1843 14.6773 16.1945 17.6746 12.4013 17.6746C10.2893 17.6746 8.40283 16.7273 7.06815 15.2472C6.60028 14.7283 6.64261 13.9292 7.1627 13.4625C7.68276 12.9957 8.48366 13.0379 8.95153 13.5568C9.85325 14.5568 11.0758 15.1471 12.4013 15.1471C14.6404 15.1471 16.6573 13.4102 17.1733 10.9246C16.9233 10.8929 16.6803 10.7867 16.4801 10.6043C15.9634 10.1338 15.9268 9.3345 16.3984 8.819L17.6315 7.47102C17.8715 7.20867 18.2112 7.0592 18.5672 7.0592Z" fill="#00BA8B"/>
<path d="M11.9992 1.66687C8.20602 1.66687 5.21608 4.66414 4.65975 8.40819C4.33533 8.39295 4.00512 8.50142 3.74627 8.7371C3.22957 9.20762 3.193 10.0069 3.6646 10.5224L4.89777 11.8704C5.13777 12.1328 5.47733 12.2822 5.83333 12.2822C6.18935 12.2822 6.52892 12.1328 6.76892 11.8704L8.00208 10.5224C8.47367 10.0069 8.4371 9.20762 7.9204 8.7371C7.72015 8.55475 7.47715 8.44855 7.22718 8.41689C7.74317 5.93122 9.76005 4.19434 11.9992 4.19434C13.4221 4.19434 14.7295 4.8756 15.645 6.0149C16.0826 6.55945 16.8798 6.64697 17.4255 6.2104C17.9713 5.77382 18.0592 4.97847 17.6215 4.43394C16.277 2.76077 14.2699 1.66687 11.9992 1.66687Z" fill="#00BA8B"/>
<g opacity="0.4">
<path d="M35.0007 19.7812V26.5212C35.0007 32.8756 35.0007 36.0529 33.022 38.0269C31.0435 40.0011 27.8588 40.0011 21.4897 40.0011C15.1204 40.0011 11.9358 40.0011 9.95717 38.0269C7.97852 36.0529 7.97852 32.8756 7.97852 26.5212V23.6342C7.97852 23.1867 7.97852 22.9629 8.02087 22.7779C8.16522 22.1469 8.65912 21.6541 9.29158 21.5101C9.47712 21.4677 9.70165 21.4677 10.1507 21.4677C12.8401 21.4677 14.1848 21.4677 15.2959 21.2152C19.0942 20.3521 22.0602 17.3929 22.9253 13.6034C23.1785 12.4949 23.1785 11.1549 23.1785 8.47484C23.1785 8.03028 23.1785 7.80798 23.2218 7.62094C23.3682 6.98854 23.8843 6.48393 24.521 6.35079C24.7093 6.31141 24.925 6.31578 25.3565 6.32451C29.242 6.40308 31.4923 6.74938 33.022 8.27551C35.0007 10.2496 35.0007 13.4268 35.0007 19.7812Z" fill="#00BA8B"/>
</g>
<path d="M15.1562 34.9456C15.1562 34.2477 15.7234 33.6819 16.4229 33.6819H26.5562C27.2558 33.6819 27.8228 34.2477 27.8228 34.9456C27.8228 35.6436 27.2558 36.2094 26.5562 36.2094H16.4229C15.7234 36.2094 15.1562 35.6436 15.1562 34.9456Z" fill="#00BA8B"/>
</g>
</svg>
