<svg width="18" height="18" viewBox="0 0 18 18" fill="none" xmlns="http://www.w3.org/2000/svg">
<path fill-rule="evenodd" clip-rule="evenodd" d="M3.52951 2.62561C3.02969 2.62561 2.62451 3.03079 2.62451 3.53061V14.4706C2.62451 14.9704 3.02969 15.3756 3.52951 15.3756H14.4695C14.9693 15.3756 15.3745 14.9704 15.3745 14.4706V3.53061C15.3745 3.03079 14.9693 2.62561 14.4695 2.62561H3.52951ZM5.4863 6.58513C6.09716 6.58513 6.59236 6.08993 6.59236 5.47907C6.59236 4.86821 6.09716 4.37301 5.4863 4.37301C4.87544 4.37301 4.38024 4.86821 4.38024 5.47907C4.38024 6.08993 4.87544 6.58513 5.4863 6.58513ZM7.60532 7.40254H9.43842V8.24229C9.43842 8.24229 9.93586 7.24742 11.2893 7.24742C12.4966 7.24742 13.4968 7.84218 13.4968 9.65507V13.4779H11.5972V10.1183C11.5972 9.04886 11.0262 8.93124 10.5912 8.93124C9.68826 8.93124 9.53369 9.71006 9.53369 10.2578V13.4779H7.60532V7.40254ZM6.45048 7.40254H4.52212V13.4779H6.45048V7.40254Z" fill="#6D7280"/>
</svg>
