<svg width="24" height="24" viewBox="0 0 24 24" fill="none" xmlns="http://www.w3.org/2000/svg">
<g clip-path="url(#clip0_159_1147)">
<path d="M3 7.00098C3 6.47054 3.21071 5.96184 3.58579 5.58676C3.96086 5.21169 4.46957 5.00098 5 5.00098H19C19.5304 5.00098 20.0391 5.21169 20.4142 5.58676C20.7893 5.96184 21 6.47054 21 7.00098V17.001C21 17.5314 20.7893 18.0401 20.4142 18.4152C20.0391 18.7903 19.5304 19.001 19 19.001H5C4.46957 19.001 3.96086 18.7903 3.58579 18.4152C3.21071 18.0401 3 17.5314 3 17.001V7.00098Z" stroke="#4B5563" stroke-width="1.6" stroke-linecap="round" stroke-linejoin="round"/>
<path d="M3 7.00098L12 13.001L21 7.00098" stroke="#4B5563" stroke-width="1.6" stroke-linecap="round" stroke-linejoin="round"/>
</g>
<defs>
<clipPath id="clip0_159_1147">
<rect width="24" height="24" fill="white" transform="translate(0 0.000976562)"/>
</clipPath>
</defs>
</svg>
