<svg width="35" height="24" viewBox="0 0 35 24" fill="none" xmlns="http://www.w3.org/2000/svg">
<path fill-rule="evenodd" clip-rule="evenodd" d="M16.8647 3.15948C12.4708 3.33009 8.33648 5.29434 5.67223 8.47723C5.61577 8.54466 5.50546 8.67625 5.42694 8.76959C5.17463 9.06975 4.73203 9.67178 4.73203 9.71477C4.73203 9.7538 4.77887 9.78741 5.14963 10.014C5.68931 10.3437 5.67891 10.3398 5.746 10.2446C5.8089 10.1553 6.07581 9.7925 6.10273 9.75957C6.1154 9.74396 6.1498 9.70063 6.17899 9.66329C6.23952 9.58579 6.34814 9.45364 6.45517 9.32737C6.49533 9.27986 6.56752 9.19466 6.61538 9.13798C6.93794 8.75669 7.64394 8.05623 8.07909 7.68592C8.20354 7.58002 8.32664 7.47491 8.35255 7.4524C8.37846 7.42988 8.45483 7.36913 8.52226 7.31742C8.58969 7.2656 8.64909 7.21876 8.6543 7.21333C8.66844 7.1984 8.92335 7.01137 9.12564 6.86757C9.43463 6.64796 9.87995 6.36387 10.2288 6.16383C10.3014 6.1222 10.4135 6.0577 10.4779 6.02059C11.7374 5.29343 13.5827 4.67048 15.207 4.42417C17.5503 4.06868 20.2141 4.35674 22.3436 5.19579C22.6479 5.31561 22.9316 5.43396 23.0859 5.50524C23.167 5.54269 23.2376 5.57335 23.2428 5.57335C23.2603 5.57335 24.0306 5.96323 24.1319 6.0232C24.1868 6.05578 24.2354 6.08248 24.2401 6.08248C24.2643 6.08248 24.8656 6.45053 25.1823 6.65916C25.3459 6.76688 25.7831 7.07994 25.865 7.14782C25.8776 7.15823 25.9485 7.21333 26.0228 7.27047C26.198 7.40499 26.4793 7.63444 26.5879 7.7314C26.6348 7.77349 26.7494 7.87521 26.8424 7.95769C27.0547 8.14584 27.6083 8.69899 27.7963 8.91102C28.0391 9.1847 28.0666 9.21661 28.2351 9.42015C28.4447 9.67336 28.4358 9.66239 28.4989 9.74543C28.5286 9.78424 28.5651 9.81615 28.5804 9.81615C28.6018 9.81615 28.8798 9.61826 28.9254 9.57052C28.9306 9.56508 29.0409 9.48113 29.1705 9.38383C29.4942 9.14103 29.4813 9.16185 29.3827 9.03943C29.3438 8.99123 29.2908 8.92414 29.2648 8.89042C28.6655 8.10918 27.5771 7.03344 26.738 6.39283C26.6706 6.34135 26.6112 6.29474 26.606 6.2893C26.6008 6.28376 26.5499 6.24586 26.4928 6.20501C26.4358 6.16417 26.3849 6.12627 26.3797 6.12072C26.3745 6.11529 26.3448 6.09312 26.3137 6.07151C26.2826 6.0499 26.2147 6.00261 26.1629 5.9664C23.3899 4.02908 20.0939 3.03412 16.8647 3.15948ZM16.7533 6.82888C14.7552 6.94507 12.8114 7.53035 11.3001 8.47067C11.2358 8.51061 11.1108 8.58845 11.022 8.64366C10.07 9.23618 9.0099 10.1717 8.29394 11.0512C8.02003 11.3877 7.80574 11.6745 7.80574 11.7045C7.80574 11.7193 8.20049 11.9819 8.47983 12.1529C8.58618 12.2179 8.67794 12.2789 8.68371 12.2882C8.7189 12.3452 8.78418 12.2996 8.9092 12.1308C8.98014 12.0348 9.06013 11.9303 9.08672 11.8985C9.11331 11.8667 9.17327 11.7951 9.22 11.7393C12.6113 7.68943 18.5036 6.74017 22.8799 9.53861C23.0583 9.65266 23.5377 9.97896 23.5983 10.0275C23.6087 10.0359 23.6766 10.0895 23.7492 10.1466C24.4462 10.6959 25.0828 11.3256 25.5594 11.9375C25.6748 12.0856 25.6653 12.085 25.828 11.9575C26.2034 11.6633 26.2888 11.5979 26.4022 11.5177C26.5758 11.3949 26.5762 11.3802 26.4131 11.1899C26.3895 11.1625 26.3236 11.0826 26.2665 11.0125C25.9509 10.624 25.5423 10.204 24.9749 9.68468C24.9034 9.61928 24.4705 9.26945 24.3515 9.18086C24.321 9.15812 24.2367 9.09521 24.164 9.04101C24.0562 8.96046 23.6998 8.72128 23.4097 8.53471C21.616 7.38112 18.9604 6.70057 16.7533 6.82888ZM17.2059 10.0172C17.154 10.0203 16.9504 10.0318 16.7533 10.0429C14.3847 10.1764 12.1887 11.3219 10.6611 13.221C10.4584 13.473 10.4553 13.4548 10.7333 13.6369C11.4978 14.138 11.413 14.0955 11.4883 14.0163C11.5215 13.9813 11.5701 13.9237 11.596 13.8883C11.8711 13.5129 12.5027 12.9099 13.0102 12.5381C15.0068 11.0753 17.7682 10.7266 20.0076 11.6545C20.3646 11.8025 20.9138 12.0798 21.1149 12.2135C21.1595 12.2433 21.1993 12.2675 21.2032 12.2675C21.215 12.2675 21.7058 12.6056 21.7221 12.6249C21.7273 12.6311 21.7889 12.6812 21.8589 12.7364C22.2222 13.0223 22.6932 13.4869 22.994 13.8562C23.1721 14.0749 23.1636 14.0734 23.3232 13.9128C23.3926 13.8427 23.4778 13.7643 23.5123 13.7383C23.565 13.6988 23.8831 13.4226 23.9613 13.3485C24.009 13.3034 24.0104 13.3056 23.7249 12.967C23.358 12.5318 22.775 11.986 22.3632 11.6921C22.3061 11.6515 22.2552 11.6131 22.25 11.6068C22.2448 11.6006 22.1388 11.5291 22.0144 11.448C21.8899 11.3669 21.7669 11.286 21.7409 11.2683C20.8092 10.6338 19.1958 10.1225 17.8753 10.0433C17.3937 10.0145 17.3104 10.0112 17.2059 10.0172ZM16.9275 13.6075C15.6886 13.6963 14.5415 14.2509 13.6981 15.1689C13.4911 15.3942 13.4955 15.3817 13.5995 15.4493C13.6436 15.478 13.6881 15.5083 13.6985 15.5165C13.7406 15.5503 14.3558 15.947 14.4024 15.9706C14.4709 16.0051 14.4754 16.0025 14.674 15.8101C14.7701 15.7171 14.9293 15.5799 15.0279 15.5052C15.1264 15.4306 15.2113 15.3647 15.2165 15.3589C15.2743 15.2942 15.7682 15.0447 16.0326 14.9468C17.5016 14.4019 19.2051 14.8686 20.1913 16.086C20.3188 16.2434 20.3254 16.2487 20.3738 16.2341C20.4074 16.2239 20.5855 16.1045 20.6095 16.0761C20.6147 16.0699 20.752 15.9654 20.9146 15.8437C21.2785 15.5715 21.2669 15.5971 21.1113 15.4071C20.0697 14.1361 18.5673 13.4898 16.9275 13.6075ZM17.154 17.7279C16.2212 17.908 16.3964 19.2629 17.3473 19.2217C18.1997 19.1849 18.3248 17.8957 17.4913 17.7384C17.3102 17.7042 17.2813 17.7033 17.154 17.7279ZM7.13628 21.7898L0.668331 21.7996L0.592979 21.8396C0.551456 21.8616 0.483571 21.8953 0.442048 21.9147C0.259891 21.9997 0.0687952 22.2575 0.0203707 22.4841C-0.00576494 22.6063 -0.00712244 23.2006 0.0184475 23.3176C0.0561235 23.4898 0.281162 23.8268 0.35855 23.8268C0.366696 23.8268 0.384686 23.8374 0.398602 23.8503C0.441483 23.8905 0.550098 23.9371 0.671046 23.9674C0.828878 24.007 32.593 24.0124 32.6089 23.9729C32.6165 23.9541 32.6186 23.9541 32.6199 23.9729C32.6224 24.0129 33.6985 24.0058 33.8621 23.9648C34.188 23.8829 34.4476 23.6158 34.5067 23.3009C34.5674 22.9789 34.4987 22.2434 34.4081 22.2429C34.4003 22.2428 34.3939 22.2339 34.3939 22.2229C34.3939 22.0761 34.0219 21.8511 33.7151 21.8124C33.5243 21.7882 17.1865 21.7744 7.13628 21.7898Z" fill="#00BA8B"/>
<path opacity="0.5" fill-rule="evenodd" clip-rule="evenodd" d="M2.58051 0.012121C2.42992 0.0387092 2.30909 0.0675598 2.2222 0.0977685C2.11426 0.135331 1.78117 0.298029 1.7728 0.31715C1.7694 0.325183 1.75628 0.331632 1.74361 0.331632C1.73105 0.331632 1.70423 0.344078 1.68398 0.359352C1.66373 0.374513 1.58804 0.431309 1.51585 0.485391C1.44367 0.539586 1.33766 0.634851 1.28018 0.697078C1.22271 0.759419 1.16297 0.823683 1.14735 0.839862C0.939286 1.05721 0.715153 1.52459 0.635502 1.90712C0.594205 2.10546 0.590359 21.8604 0.631655 21.8262C0.673291 21.7916 11.5223 21.7738 24.3996 21.7874L33.6318 21.797L33.644 21.7515C33.6507 21.7264 33.6541 17.2934 33.6515 11.9003L33.6467 2.09483L33.6057 1.91561C33.4619 1.28903 33.1562 0.800263 32.695 0.459255C32.4224 0.257863 32.2019 0.150832 31.8369 0.0425557L31.705 0.00340874L17.1851 0.000353881C9.19928 -0.00145638 2.62713 0.0038617 2.58051 0.012121ZM18.3637 3.19015C21.1821 3.38362 23.7954 4.31421 26.1611 5.96697C26.2129 6.00318 26.2808 6.05047 26.3119 6.07208C26.343 6.09369 26.3727 6.11587 26.3779 6.1213C26.3831 6.12684 26.434 6.16474 26.491 6.20559C26.548 6.24643 26.5989 6.28433 26.6041 6.28988C26.6094 6.29531 26.6687 6.34192 26.7362 6.3934C27.5752 7.03401 28.6637 8.10975 29.263 8.891C29.289 8.92471 29.3419 8.99181 29.3809 9.04C29.4795 9.16242 29.4924 9.1416 29.1687 9.3844C29.0391 9.48171 28.9287 9.56566 28.9235 9.57109C28.8779 9.61883 28.6 9.81672 28.5786 9.81672C28.5633 9.81672 28.5268 9.78481 28.4971 9.74601C28.434 9.66296 28.4429 9.67393 28.2333 9.42072C28.0648 9.21718 28.0373 9.18528 27.7945 8.91159C27.6065 8.69956 27.0529 8.14641 26.8406 7.95826C26.7476 7.87578 26.633 7.77406 26.586 7.73198C26.4774 7.63501 26.1962 7.40556 26.021 7.27104C25.9467 7.2139 25.8757 7.1588 25.8632 7.14839C25.7813 7.08051 25.3441 6.76745 25.1805 6.65974C24.8638 6.4511 24.2625 6.08306 24.2382 6.08306C24.2336 6.08306 24.185 6.05635 24.1301 6.02377C24.0288 5.96381 23.2584 5.57392 23.241 5.57392C23.2358 5.57392 23.1652 5.54326 23.0841 5.50581C21.4305 4.74199 19.4853 4.31353 17.5152 4.27902C15.0745 4.23636 12.4369 4.88919 10.4761 6.02117C10.4117 6.05828 10.2996 6.12277 10.2269 6.1644C9.87813 6.36444 9.4328 6.64854 9.12381 6.86814C8.92152 7.01195 8.66661 7.19897 8.65247 7.2139C8.64726 7.21933 8.58786 7.26617 8.52043 7.31799C8.453 7.3697 8.37663 7.43045 8.35072 7.45297C8.32481 7.47548 8.20171 7.58059 8.07726 7.68649C7.64212 8.05681 6.93612 8.75726 6.61355 9.13855C6.56569 9.19523 6.49351 9.28043 6.45334 9.32795C6.34631 9.45421 6.23769 9.58636 6.17716 9.66386C6.14797 9.7012 6.11358 9.74453 6.1009 9.76015C6.07398 9.79307 5.80708 10.1559 5.74417 10.2452C5.67708 10.3403 5.68749 10.3443 5.1478 10.0146C4.77704 9.78798 4.7302 9.75438 4.7302 9.71534C4.7302 9.67235 5.17281 9.07032 5.42511 8.77016C5.50363 8.67682 5.61395 8.54524 5.6704 8.4778C8.66548 4.8996 13.5608 2.86034 18.3637 3.19015ZM18.3637 6.86441C20.1474 7.03378 22.0565 7.66624 23.4079 8.53528C23.698 8.72185 24.0544 8.96103 24.1622 9.04159C24.2349 9.09578 24.3191 9.15869 24.3497 9.18143C24.4687 9.27002 24.9016 9.61985 24.9731 9.68525C25.5405 10.2046 25.9491 10.6245 26.2647 11.0131C26.3217 11.0832 26.3877 11.1631 26.4112 11.1905C26.5744 11.3808 26.5739 11.3955 26.4004 11.5182C26.287 11.5985 26.2016 11.6639 25.8262 11.958C25.6635 12.0855 25.673 12.0862 25.5576 11.9381C25.0809 11.3261 24.4444 10.6965 23.7473 10.1472C23.6748 10.0901 23.6069 10.0364 23.5965 10.0281C23.5359 9.97953 23.0565 9.65323 22.8781 9.53918C19.1023 7.12475 14.0771 7.47254 10.5586 10.3917C10.1501 10.7307 9.5998 11.284 9.21817 11.7399C9.17145 11.7957 9.11148 11.8673 9.08489 11.8991C9.05831 11.9309 8.97831 12.0354 8.90738 12.1314C8.78235 12.3002 8.71707 12.3458 8.68188 12.2887C8.67611 12.2795 8.58436 12.2185 8.478 12.1534C8.19866 11.9825 7.80391 11.7199 7.80391 11.705C7.80391 11.6751 8.0182 11.3882 8.29211 11.0518C9.00807 10.1723 10.0682 9.23676 11.0202 8.64423C11.109 8.58902 11.234 8.51118 11.2983 8.47124C12.8096 7.53092 14.7534 6.94565 16.7515 6.82945C17.018 6.81395 18.0735 6.8368 18.3637 6.86441ZM17.8735 10.0439C19.1127 10.1182 20.3313 10.4776 21.4374 11.0948C21.5774 11.1729 21.7132 11.2512 21.7391 11.2689C21.7651 11.2865 21.8881 11.3674 22.0125 11.4486C22.137 11.5297 22.243 11.6012 22.2482 11.6074C22.2534 11.6136 22.3043 11.6521 22.3613 11.6927C22.7732 11.9865 23.3562 12.5323 23.7231 12.9676C24.0086 13.3062 24.0072 13.304 23.9595 13.3491C23.8813 13.4232 23.5631 13.6994 23.5105 13.7389C23.476 13.7649 23.3908 13.8433 23.3214 13.9133C23.1618 14.074 23.1703 14.0755 22.9922 13.8568C22.6914 13.4875 22.2204 13.0229 21.8571 12.737C21.787 12.6818 21.7255 12.6317 21.7203 12.6255C21.704 12.6062 21.2132 12.268 21.2014 12.268C21.1975 12.268 21.1576 12.2438 21.1131 12.2141C20.912 12.0803 20.3628 11.803 20.0057 11.655C17.7663 10.7272 15.005 11.0759 13.0084 12.5387C12.5009 12.9105 11.8693 13.5135 11.5941 13.8889C11.5682 13.9243 11.5197 13.9819 11.4864 14.0169C11.4112 14.0961 11.4959 14.1386 10.7314 13.6375C10.4535 13.4553 10.4566 13.4736 10.6593 13.2216C12.1869 11.3225 14.3828 10.177 16.7515 10.0435C16.9486 10.0324 17.1522 10.0208 17.204 10.0178C17.3086 10.0118 17.3918 10.0151 17.8735 10.0439ZM17.6774 13.607C19.037 13.7124 20.2353 14.3411 21.1094 15.4077C21.2651 15.5977 21.2767 15.5721 20.9128 15.8443C20.7502 15.9659 20.6129 16.0705 20.6077 16.0767C20.5837 16.1051 20.4056 16.2245 20.372 16.2347C20.3236 16.2493 20.317 16.2439 20.1895 16.0866C19.2032 14.8692 17.4998 14.4024 16.0308 14.9473C15.7663 15.0453 15.2725 15.2948 15.2147 15.3595C15.2095 15.3653 15.1246 15.4311 15.0261 15.5058C14.9275 15.5805 14.7683 15.7177 14.6722 15.8107C14.4736 16.0031 14.4691 16.0057 14.4006 15.9712C14.354 15.9476 13.7387 15.5508 13.6966 15.5171C13.6862 15.5089 13.6418 15.4785 13.5976 15.4499C13.4937 15.3822 13.4893 15.3948 13.6963 15.1694C14.7125 14.0634 16.1729 13.4902 17.6774 13.607ZM17.4895 17.739C18.323 17.8962 18.1979 19.1855 17.3455 19.2223C16.3946 19.2634 16.2194 17.9086 17.1522 17.7285C17.2795 17.7039 17.3083 17.7048 17.4895 17.739Z" fill="#00BA8B"/>
</svg>
