<svg width="29" height="28" viewBox="0 0 29 28" fill="none" xmlns="http://www.w3.org/2000/svg">
<path fill-rule="evenodd" clip-rule="evenodd" d="M18.6908 9.66711C18.6746 9.67002 18.5721 9.68227 18.4631 9.69443C18.1858 9.72528 17.9563 9.76838 17.758 9.82691C17.7136 9.84004 17.6574 9.85652 17.6331 9.86366C17.5622 9.88428 17.4468 9.92298 17.3834 9.94721C17.3511 9.95964 17.3114 9.97471 17.2953 9.98071C17.2792 9.9867 17.2362 10.0049 17.1998 10.0211C17.1634 10.0373 17.1024 10.0629 17.064 10.0782C17.0257 10.0933 16.9942 10.1108 16.9942 10.1168C16.9942 10.1229 16.9859 10.1279 16.9758 10.128C16.9396 10.1284 16.676 10.2715 16.512 10.3799C16.4528 10.419 16.4013 10.451 16.3975 10.451C16.3937 10.451 16.3826 10.4576 16.3729 10.4657C16.3632 10.4738 16.2826 10.5345 16.1939 10.6006C16.1052 10.6667 16.0099 10.7411 15.9821 10.7658C15.7777 10.9482 15.6178 11.1057 15.5212 11.2198C15.4871 11.2602 15.4511 11.3013 15.4413 11.3112C15.4316 11.3211 15.389 11.3745 15.3467 11.43C15.3045 11.4854 15.2645 11.5329 15.258 11.5356C15.2515 11.5383 15.2461 11.5471 15.2461 11.5552C15.2461 11.5632 15.2229 11.5981 15.1947 11.6326C15.1664 11.6671 15.1433 11.7023 15.1433 11.711C15.1433 11.7195 15.138 11.7288 15.1315 11.7315C15.1088 11.7409 14.8793 12.1311 14.8707 12.1748C14.8677 12.1898 14.8396 12.2559 14.8083 12.3218C14.777 12.3876 14.7297 12.4977 14.7034 12.5663C14.6771 12.635 14.6496 12.7045 14.6425 12.7206C14.5993 12.8175 14.47 13.2811 14.4581 13.3816C14.4553 13.4059 14.4496 13.4343 14.4457 13.4449C14.4351 13.4732 14.3959 13.7489 14.3869 13.8591C14.3826 13.9115 14.3748 14.0041 14.3696 14.0647C14.3539 14.2484 14.3757 14.7342 14.4081 14.924C14.4151 14.9644 14.4288 15.0471 14.4387 15.1076C14.5178 15.5926 14.7667 16.2581 15.0185 16.6577C15.0659 16.733 15.11 16.8001 15.2314 16.9812C15.4108 17.2486 15.7881 17.6426 16.1428 17.9329C16.1836 17.9662 16.55 18.2119 16.6783 18.2919C16.9775 18.4785 17.6211 18.7262 18.0151 18.8065C18.4131 18.8876 18.5787 18.9038 19.0067 18.9036C20.6894 18.9027 22.1985 18.0219 23.0312 16.5546C23.0996 16.4342 23.2666 16.0899 23.2666 16.0695C23.2666 16.0656 23.2798 16.0493 23.2959 16.0331C23.3121 16.017 23.3254 15.9913 23.3254 15.9762C23.3254 15.9517 23.3438 15.8974 23.3834 15.8054C23.3999 15.7669 23.4737 15.5097 23.5161 15.3427C23.6233 14.9201 23.6659 14.1451 23.6042 13.7415C23.496 13.0334 23.355 12.5986 23.054 12.0448C22.9552 11.8631 22.6754 11.451 22.5841 11.3527C22.5757 11.3437 22.5391 11.3009 22.5027 11.2578C22.4124 11.1507 22.1294 10.8681 22.0405 10.7963C22.0005 10.7639 21.9569 10.7275 21.9436 10.7154C21.8549 10.6349 21.5178 10.3922 21.4946 10.3922C21.4849 10.3922 21.4747 10.3869 21.472 10.3805C21.4655 10.3648 21.2913 10.26 21.2718 10.26C21.2634 10.26 21.2543 10.2546 21.2517 10.248C21.244 10.2292 20.8374 10.0339 20.6959 9.98097C20.6515 9.96431 20.6019 9.94528 20.5857 9.93858C20.5696 9.93188 20.5068 9.91126 20.4462 9.89283C20.3856 9.87432 20.3228 9.85423 20.3067 9.84823C20.2598 9.83078 20.1069 9.79024 20.0349 9.77614C19.6895 9.70854 19.6732 9.70598 19.4326 9.68015C19.2454 9.66006 18.7755 9.65177 18.6908 9.66711ZM13.0868 19.1784C12.6275 19.2122 12.0598 19.371 11.7295 19.5581C11.7004 19.5746 11.6518 19.6021 11.6215 19.6192C10.7349 20.1201 9.99316 21.18 9.89277 22.0898C9.88907 22.1237 9.87875 22.1877 9.86985 22.2322C9.86095 22.2773 9.85002 22.5697 9.84535 22.8933C9.84068 23.2123 9.83275 23.4752 9.82763 23.4772C9.79256 23.4909 9.84746 25.0128 9.88554 25.0841C9.89303 25.0981 9.89911 25.1277 9.89911 25.1499C9.89911 25.1721 9.90969 25.2304 9.92265 25.2794C9.96266 25.4314 10.0035 25.5728 10.0162 25.6035C10.0228 25.6197 10.0398 25.6659 10.0538 25.7063C10.078 25.7758 10.0894 25.8043 10.1571 25.9634C10.1725 25.9997 10.2125 26.0791 10.246 26.1397C10.2795 26.2003 10.3193 26.273 10.3343 26.3012C10.3495 26.3295 10.3655 26.356 10.3699 26.36C10.3744 26.3641 10.394 26.3938 10.4135 26.4261C10.433 26.4585 10.4558 26.4923 10.4642 26.5015C10.4725 26.5106 10.4893 26.533 10.5014 26.5515C10.5268 26.59 10.6722 26.7724 10.7294 26.8375C10.8719 26.9997 11.1134 27.2211 11.2506 27.3153C11.2788 27.3348 11.31 27.3574 11.3199 27.3658C11.3733 27.4113 11.3827 27.4177 11.3958 27.4177C11.4036 27.4177 11.4188 27.4262 11.4294 27.4367C11.4575 27.4641 11.6262 27.5646 11.6442 27.5646C11.6526 27.5646 11.6617 27.5696 11.6643 27.5756C11.675 27.5995 12.0086 27.7523 12.154 27.7997C12.2105 27.8182 12.2681 27.8388 12.282 27.8456C12.3282 27.8683 12.6342 27.9364 12.8811 27.979C13.0474 28.0076 24.8446 28.0069 25.0366 27.9782C25.3166 27.9364 25.7218 27.8305 25.8886 27.7557C25.9048 27.7484 25.951 27.7281 25.9915 27.7106C26.0963 27.665 26.216 27.6047 26.2926 27.5588C26.329 27.537 26.3703 27.5154 26.3844 27.5109C26.3985 27.5062 26.4102 27.4966 26.4102 27.4894C26.4102 27.4823 26.4168 27.4765 26.4249 27.4765C26.4431 27.4765 26.6058 27.3645 26.7315 27.2656C26.9678 27.0795 27.1865 26.858 27.3571 26.6318C27.3937 26.5833 27.4286 26.537 27.4347 26.529C27.4747 26.4759 27.5559 26.3433 27.5559 26.3309C27.5559 26.3227 27.562 26.316 27.5696 26.316C27.5844 26.316 27.8203 25.8487 27.8203 25.8193C27.8203 25.8094 27.8266 25.79 27.8343 25.7759C27.877 25.6979 27.9691 25.411 27.998 25.2656C28.0834 24.836 28.077 24.9718 28.0772 23.591C28.0774 22.2558 28.078 22.27 28.0087 21.9458C27.9753 21.7894 27.8947 21.5126 27.8763 21.4911C27.8698 21.4834 27.8644 21.4679 27.8644 21.4566C27.8644 21.4453 27.8536 21.4119 27.8404 21.3824C27.8272 21.353 27.8034 21.299 27.7876 21.2627C27.7521 21.1813 27.6745 21.0255 27.6301 20.9468C27.5866 20.8697 27.494 20.7157 27.4798 20.6971C27.4736 20.689 27.427 20.6263 27.3762 20.5576C27.194 20.3113 26.8623 19.978 26.6746 19.8525C26.6564 19.8403 26.6341 19.8236 26.625 19.8152C26.6035 19.7956 26.3994 19.6602 26.3515 19.6339C26.1935 19.5471 26.046 19.4745 25.94 19.4313C25.8714 19.4033 25.7954 19.3717 25.7712 19.3611C25.7293 19.3429 25.6527 19.3184 25.5214 19.2813C25.4356 19.257 25.3497 19.2375 25.1762 19.2027L25.022 19.1716L19.1389 19.1688C15.9031 19.1673 13.1797 19.1716 13.0868 19.1784Z" fill="#00BA8B"/>
<path opacity="0.5" fill-rule="evenodd" clip-rule="evenodd" d="M11.3823 0.00680376C11.1514 0.0262824 10.9051 0.0521071 10.8806 0.0593344C10.8672 0.0633007 10.7978 0.0759926 10.7263 0.0875387C10.6549 0.0990849 10.5502 0.118916 10.4936 0.131608C10.4371 0.1443 10.3578 0.161311 10.3173 0.16942C10.2769 0.177528 10.2274 0.190044 10.2071 0.197183C10.1869 0.204322 10.1208 0.224594 10.0603 0.24231C9.8641 0.299424 9.67135 0.363413 9.65707 0.376193C9.6494 0.383068 9.63415 0.38862 9.62322 0.38862C9.61221 0.38862 9.57228 0.402193 9.53429 0.418852C9.49639 0.435422 9.45215 0.45446 9.43593 0.46107C9.32171 0.507783 9.24952 0.541805 9.04769 0.643693C8.74132 0.798465 8.73198 0.803401 8.72352 0.815299C8.71947 0.821028 8.69303 0.838127 8.66473 0.853463C8.59713 0.890041 8.23225 1.13586 8.18227 1.17852C8.16086 1.19685 8.11705 1.2299 8.08506 1.25194C8.05298 1.27397 8.01605 1.302 8.00309 1.31408C7.99005 1.32624 7.9436 1.3659 7.89997 1.40221C7.67963 1.58572 7.35105 1.9098 7.23736 2.05576C7.21858 2.07991 7.19329 2.11023 7.18113 2.12301C7.12357 2.184 7.00274 2.33922 6.92438 2.45256C6.88534 2.50915 6.84929 2.55868 6.84427 2.56274C6.8277 2.57604 6.63759 2.88779 6.63759 2.90172C6.63759 2.90921 6.63142 2.91529 6.62392 2.91529C6.61634 2.91529 6.60586 2.92895 6.60057 2.9457C6.59528 2.96236 6.56082 3.02679 6.52389 3.08892C6.46977 3.17997 6.34021 3.43901 6.269 3.59836C6.2155 3.71806 6.04936 4.19418 6.02292 4.30347C6.01507 4.33582 5.99524 4.41303 5.97876 4.47517C5.83149 5.03114 5.76732 5.77706 5.81536 6.37473C5.83466 6.61491 5.88807 7.00739 5.91733 7.12391C5.92544 7.15625 5.9458 7.24219 5.96255 7.3149C5.97929 7.38762 5.99903 7.46694 6.00644 7.49118C6.01384 7.51542 6.03385 7.58478 6.05095 7.64542C6.08911 7.78072 6.12172 7.87952 6.13944 7.91328C6.14684 7.92729 6.15283 7.94615 6.15283 7.95514C6.15283 7.96413 6.16244 7.99234 6.17425 8.01772C6.18597 8.04319 6.2095 8.1004 6.22652 8.14482C6.36163 8.49816 6.68633 9.09019 6.89116 9.35672C6.89733 9.36483 6.95585 9.44354 7.02125 9.53159C7.13759 9.68848 7.16517 9.72135 7.32699 9.89604C7.37088 9.94337 7.41583 9.99511 7.42694 10.011C7.46272 10.062 7.88666 10.4499 8.01702 10.5508C8.08647 10.6046 8.14658 10.653 8.15063 10.6583C8.16306 10.6747 8.71383 11.0388 8.72617 11.0388C8.73251 11.0388 8.78028 11.0648 8.83237 11.0967C8.95973 11.1747 9.37688 11.3771 9.53147 11.436C9.60013 11.4621 9.6695 11.489 9.68571 11.4957C9.73172 11.5146 10.0141 11.6051 10.1117 11.6322C10.1602 11.6457 10.2196 11.6623 10.2439 11.6694C10.2681 11.6764 10.3408 11.6932 10.4054 11.7068C10.4701 11.7203 10.5527 11.7381 10.5891 11.7463C11.3556 11.9195 12.4467 11.8808 13.2919 11.6505C13.3364 11.6384 13.4025 11.6209 13.4388 11.6117C13.4752 11.6025 13.5157 11.5893 13.5288 11.5822C13.542 11.5753 13.5768 11.565 13.6061 11.5596C13.6355 11.554 13.6632 11.5437 13.6676 11.5365C13.672 11.5293 13.6852 11.5235 13.697 11.5235C13.7758 11.5235 14.6209 11.1388 14.6409 11.0938C14.6436 11.0878 14.6527 11.0828 14.661 11.0828C14.7072 11.0828 15.369 10.645 15.4366 10.5695C15.4407 10.565 15.477 10.535 15.5174 10.5029C15.6662 10.3845 16.1029 9.95906 16.2569 9.78243C16.4011 9.61717 16.8133 9.03581 16.8425 8.95649C16.8477 8.9423 16.8564 8.9274 16.8616 8.92343C16.8968 8.89646 17.1075 8.48107 17.2117 8.23296C17.2202 8.21277 17.2407 8.16527 17.2573 8.12728C17.2739 8.08938 17.2875 8.04936 17.2875 8.03843C17.2875 8.0275 17.2932 8.01226 17.3001 8.00459C17.3071 7.99692 17.3472 7.88155 17.3893 7.74819C17.4671 7.50167 17.4745 7.47593 17.5158 7.3075C17.5536 7.15335 17.6032 6.87659 17.6251 6.69793C17.6329 6.63324 17.6468 6.52086 17.6558 6.44806C17.6779 6.26958 17.6786 5.58651 17.6568 5.41252C17.6473 5.33575 17.6331 5.22011 17.6253 5.15551C17.6025 4.96583 17.5507 4.68776 17.5022 4.49447C17.49 4.44599 17.4723 4.37328 17.4628 4.33282C17.4534 4.29246 17.4406 4.25279 17.4344 4.24468C17.4281 4.23666 17.4184 4.20194 17.4128 4.16765C17.4071 4.13337 17.397 4.1019 17.3903 4.09785C17.3837 4.0937 17.3737 4.06391 17.3683 4.03174C17.3629 3.99948 17.3524 3.96934 17.345 3.96484C17.3376 3.96026 17.3316 3.94633 17.3316 3.93391C17.3316 3.92148 17.3223 3.89046 17.3111 3.86498C17.2998 3.83951 17.2658 3.75587 17.2355 3.67919C17.1749 3.52539 17.0187 3.1991 16.9507 3.08425C16.8956 2.991 16.8621 2.93142 16.8412 2.88973C16.8322 2.87157 16.8198 2.85668 16.8138 2.85668C16.8077 2.85659 16.8028 2.84778 16.8028 2.83711C16.8028 2.80406 16.4158 2.25249 16.3259 2.1573C16.3175 2.14848 16.2776 2.10248 16.2372 2.05515C16.0454 1.83057 15.844 1.62891 15.6364 1.45342C15.5887 1.41314 15.539 1.37022 15.526 1.35797C15.513 1.34572 15.4793 1.31963 15.4511 1.29989C15.4229 1.28023 15.3966 1.26005 15.3926 1.25511C15.3885 1.25009 15.3389 1.21192 15.2824 1.17015C15.2258 1.12846 15.1729 1.08897 15.1648 1.08254C15.1402 1.06279 14.8156 0.851172 14.7609 0.819001C14.5444 0.691993 14.1714 0.508489 14.0191 0.453931C13.9787 0.439476 13.939 0.422818 13.9309 0.417001C13.9115 0.402899 13.4061 0.233056 13.3214 0.212167C12.866 0.0997901 12.7393 0.0770502 12.2589 0.0209059C12.0948 0.0016917 11.5469 -0.00712214 11.3823 0.00680376ZM4.12568 12.1707C3.74185 12.2086 3.34708 12.2906 3.03138 12.3979C2.96668 12.4198 2.90719 12.4425 2.89917 12.4482C2.89106 12.4539 2.8514 12.4702 2.81103 12.4844C2.72034 12.5162 2.25463 12.7446 2.24793 12.7605C2.24519 12.7669 2.23682 12.7721 2.22924 12.7721C2.19637 12.7721 1.76837 13.0692 1.63723 13.1831C1.41829 13.3731 1.12612 13.6729 1.00722 13.8292C0.973291 13.874 0.938213 13.9172 0.929311 13.9253C0.920409 13.9333 0.890707 13.973 0.863208 14.0134C0.83571 14.0538 0.809797 14.0901 0.805655 14.0942C0.795519 14.104 0.645069 14.3474 0.592275 14.4394C0.528641 14.5503 0.400225 14.813 0.365675 14.9031C0.348841 14.947 0.328834 14.9962 0.321342 15.0123C0.299837 15.0586 0.176974 15.4312 0.15917 15.5044C0.0106598 16.1127 0.00924979 16.1333 0.00211071 17.7373C-0.00414702 19.1655 -9.27056e-05 19.2907 0.0651286 19.691C0.15591 20.2485 0.364441 20.8266 0.639957 21.2849C0.731532 21.4373 0.750481 21.4683 0.764935 21.4897C0.790407 21.5275 1.01692 21.8291 1.02485 21.8357C1.02961 21.8397 1.05975 21.8761 1.09175 21.9165C1.16807 22.0128 1.47788 22.323 1.59915 22.4242C1.65159 22.4681 1.69795 22.5077 1.70192 22.5121C1.71814 22.5298 1.89203 22.6573 1.99577 22.7274C2.41495 23.0111 2.92535 23.2345 3.44262 23.3609C3.60497 23.4006 3.7311 23.4232 4.04495 23.469C4.17971 23.4888 9.79112 23.5039 9.81977 23.4847C9.83131 23.477 9.83889 23.299 9.8448 22.8934C9.84956 22.5702 9.86049 22.2773 9.86939 22.2324C9.87829 22.1879 9.8886 22.1239 9.89231 22.0899C9.99269 21.1802 10.7345 20.1202 11.621 19.6193C11.6513 19.6022 11.6999 19.5747 11.729 19.5582C11.9658 19.4241 12.4236 19.2733 12.7705 19.2152C13.0752 19.1642 13.2876 19.1621 18.3525 19.1621H23.3708L23.3647 17.6528C23.3582 16.0427 23.3551 15.9736 23.2934 16.0352C23.2785 16.0503 23.2661 16.0657 23.2661 16.0696C23.2661 16.0901 23.0992 16.4343 23.0308 16.5547C22.3723 17.715 21.2262 18.5545 19.9463 18.8141C19.5698 18.8904 19.4327 18.9035 19.0062 18.9037C18.5782 18.9039 18.4127 18.8877 18.0147 18.8066C17.6206 18.7263 16.977 18.4786 16.6779 18.292C16.5496 18.212 16.1832 17.9664 16.1424 17.9331C15.7876 17.6427 15.4103 17.2487 15.2309 16.9813C15.0034 16.6419 14.9758 16.5962 14.8626 16.3714C14.7283 16.1046 14.6355 15.8694 14.5407 15.5559C14.5123 15.4615 14.4553 15.2127 14.4382 15.1078C14.4284 15.0472 14.4146 14.9645 14.4076 14.9242C14.3752 14.7343 14.3534 14.2485 14.3691 14.0648C14.3743 14.0043 14.3822 13.9116 14.3864 13.8592C14.3955 13.749 14.4346 13.4733 14.4452 13.445C14.4492 13.4345 14.4548 13.406 14.4576 13.3817C14.4695 13.2813 14.5988 12.8177 14.642 12.7207C14.6491 12.7046 14.6766 12.6351 14.703 12.5665C14.7293 12.4978 14.7791 12.3823 14.8134 12.3096C14.8478 12.2371 14.8727 12.1726 14.8689 12.1663C14.8599 12.1518 4.27349 12.1561 4.12568 12.1707Z" fill="#00BA8B"/>
</svg>
