<svg width="29" height="28" viewBox="0 0 29 28" fill="none" xmlns="http://www.w3.org/2000/svg">
<path opacity="0.5" fill-rule="evenodd" clip-rule="evenodd" d="M2.5291 0.0120318C2.44037 0.0211161 2.16274 0.0728524 2.09527 0.0929042C1.87802 0.157602 1.82949 0.173444 1.77211 0.198148C1.23867 0.428356 0.882607 0.699333 0.589025 1.09826C0.529201 1.17947 0.473587 1.25425 0.465389 1.26444C0.441127 1.29468 0.276499 1.56954 0.276499 1.57995C0.276499 1.58527 0.259438 1.62859 0.23861 1.67622C0.217672 1.72397 0.19341 1.77958 0.184547 1.79986C0.164162 1.84639 0.102122 2.05045 0.0750906 2.1599C-0.00356722 2.4773 -0.000465496 1.99971 0.000199218 14.0216C0.000863932 26.5163 -0.00744476 25.5183 0.0982448 25.9335C0.163941 26.1916 0.350836 26.6039 0.465943 26.7447C0.474251 26.7549 0.516682 26.813 0.560332 26.8739C0.683525 27.0459 0.911965 27.2787 1.07726 27.4007C1.15979 27.4617 1.23568 27.518 1.24587 27.5258C1.43543 27.6717 1.99379 27.9066 2.24594 27.9464C2.28493 27.9526 2.3216 27.9606 2.32747 27.9643C2.33335 27.9678 2.39151 27.9773 2.45676 27.9855C2.60001 28.0033 25.4397 28.0055 25.5448 27.9878C25.8517 27.9359 25.9561 27.9092 26.2003 27.8196C26.3626 27.76 26.6491 27.6192 26.7003 27.5738C26.7164 27.5595 26.7354 27.5478 26.7426 27.5478C26.75 27.5478 26.7659 27.5394 26.7781 27.5291C26.7904 27.5188 26.842 27.4796 26.8928 27.4419C27.0485 27.3265 27.2414 27.1466 27.3843 26.9836C27.4364 26.9242 27.6591 26.5963 27.6591 26.579C27.6591 26.5733 27.678 26.5375 27.7011 26.4996C27.8248 26.2971 27.9548 25.8751 27.9911 25.5577C28.0166 25.3352 28.0166 2.67527 27.9911 2.44617C27.9549 2.12069 27.7533 1.4972 27.6729 1.46141C27.6653 1.45798 27.6591 1.44723 27.6591 1.43737C27.6591 1.38818 27.3413 0.954357 27.2148 0.830944C27.1496 0.767132 27.0176 0.652139 26.9602 0.608934C26.9264 0.583564 26.889 0.554539 26.877 0.544347C26.7331 0.422042 26.358 0.227617 26.1173 0.150511C25.9627 0.101102 25.8801 0.0782805 25.7203 0.041168C25.5936 0.0116995 2.81316 -0.0168827 2.5291 0.0120318ZM11.3283 9.50086C11.3635 9.5156 11.4358 9.567 11.4891 9.61508C11.5424 9.66316 11.7107 9.80585 11.8629 9.93215C12.0152 10.0585 12.1772 10.194 12.2229 10.2334C12.2686 10.2727 12.3142 10.3106 12.3244 10.3176C12.3346 10.3245 12.4052 10.3821 12.4814 10.4455C12.5575 10.5089 12.6489 10.5847 12.6845 10.6139C12.7201 10.643 12.7923 10.7034 12.8451 10.7478C12.898 10.7924 12.9721 10.8536 13.0099 10.8841C13.0477 10.9146 13.1176 10.9727 13.1653 11.0134C13.2129 11.0541 13.2836 11.1122 13.3223 11.1427C13.361 11.1731 13.4312 11.2313 13.4785 11.2719C13.5258 11.3125 13.597 11.3722 13.6369 11.4045C13.6767 11.4368 13.77 11.5137 13.8441 11.5754C13.9182 11.6371 13.9888 11.6956 14.001 11.7052C14.0131 11.715 14.0652 11.7585 14.1166 11.8021C14.2266 11.8952 14.3232 11.9757 14.5125 12.1313C14.6738 12.2641 15.2157 12.7153 15.72 13.1368C15.9145 13.2992 16.1149 13.4654 16.1655 13.5058C16.216 13.5463 16.2823 13.6016 16.3127 13.6288C16.4437 13.7452 16.5538 13.8292 16.5755 13.8292C16.5947 13.8292 16.9116 13.5726 17.2469 13.2858C17.2833 13.2545 17.3946 13.1626 17.4941 13.0814C17.5937 13.0001 17.7436 12.8754 17.8274 12.8044C17.911 12.7333 18.0563 12.6129 18.1502 12.5367C18.2441 12.4606 18.3903 12.34 18.475 12.2689C18.5598 12.1979 18.7002 12.0816 18.7868 12.0104C18.8735 11.9393 19.013 11.823 19.0968 11.752C19.1806 11.6809 19.2714 11.6061 19.2985 11.5858C19.3257 11.5654 19.4253 11.4834 19.5198 11.4036C19.6144 11.3237 19.7499 11.21 19.821 11.151C19.9688 11.0283 20.2075 10.8296 20.6518 10.4595C20.8224 10.3173 21.0127 10.1595 21.0746 10.1088C21.1367 10.0581 21.317 9.90722 21.4757 9.77361C21.8153 9.48724 21.8541 9.46397 21.9905 9.46497C22.1995 9.46652 22.3228 9.5742 22.8122 10.1825C22.8427 10.2204 22.8813 10.2674 22.8982 10.2871C22.915 10.3067 22.9565 10.3571 22.9906 10.399C23.0245 10.4409 23.1269 10.5642 23.2183 10.6728C23.3097 10.7816 23.4107 10.9027 23.4427 10.9419C23.4746 10.9813 23.5979 11.1297 23.7168 11.2719C23.8355 11.4141 23.9631 11.5671 24.0003 11.612C24.0374 11.6567 24.1136 11.7481 24.1695 11.815C24.2256 11.8818 24.3293 12.0072 24.4 12.0935C24.5593 12.288 24.5919 12.3267 24.6468 12.3871C24.7856 12.5399 24.842 12.6697 24.8405 12.8331C24.839 12.9944 24.8167 13.0274 24.5777 13.2239C24.3306 13.4267 24.2503 13.4933 23.6615 13.9843C23.3975 14.2044 23.1648 14.3981 23.1445 14.4146C23.1242 14.4311 23.0526 14.491 22.9855 14.5477C22.9182 14.6044 22.8434 14.6667 22.8193 14.6862C22.795 14.7056 22.7205 14.768 22.6535 14.8247C22.5866 14.8814 22.496 14.9568 22.4521 14.9924C22.4083 15.0279 22.3378 15.086 22.2955 15.1216C22.2533 15.1571 22.1786 15.2195 22.1295 15.2601C22.0806 15.3007 22.0059 15.363 21.9636 15.3985C21.9213 15.4341 21.8504 15.4923 21.8058 15.5278C21.7614 15.5634 21.6909 15.6215 21.6493 15.6571C21.6076 15.6926 21.5374 15.7507 21.4931 15.7863C21.4488 15.8218 21.3702 15.8868 21.3184 15.9304C21.2666 15.9742 21.1993 16.0303 21.1688 16.0552C21.1383 16.0801 21.0462 16.1564 20.9638 16.225C20.8816 16.2934 20.729 16.4201 20.6245 16.5064C20.5201 16.5927 20.3708 16.7173 20.2927 16.7833C20.0915 16.9534 19.8787 17.1296 19.7576 17.2265C19.7004 17.2722 19.5957 17.3595 19.525 17.4206C19.4542 17.4816 19.3381 17.5784 19.267 17.6358C19.1959 17.6931 19.0172 17.8412 18.87 17.965C18.7228 18.0886 18.5856 18.2036 18.5651 18.2205C18.5447 18.2374 18.4625 18.3053 18.3826 18.3713C18.3028 18.4372 18.1735 18.5452 18.0956 18.6113C18.0176 18.6773 17.9173 18.7604 17.8729 18.7959C17.8285 18.8315 17.7543 18.8922 17.708 18.9309C17.6615 18.9694 17.5946 19.0249 17.5591 19.0542C17.5235 19.0834 17.4487 19.1458 17.3929 19.1929C17.3371 19.24 17.2623 19.3024 17.2267 19.3316C17.1911 19.3608 17.104 19.4333 17.0328 19.4927C16.7876 19.6977 16.752 19.7205 16.6542 19.7359C16.4874 19.7623 16.4097 19.7357 16.2435 19.5958C16.1974 19.557 16.1241 19.4962 16.0804 19.4606C16.0368 19.4251 15.9621 19.3628 15.9145 19.3222C15.8668 19.2815 15.7921 19.2192 15.7485 19.1837C15.7048 19.1481 15.6312 19.0879 15.5848 19.0496C15.5383 19.0115 15.4754 18.96 15.4449 18.9353C15.4145 18.9106 15.3475 18.8545 15.296 18.8108C15.2446 18.7671 15.167 18.7022 15.1233 18.6667C15.0797 18.6311 15.0089 18.5729 14.966 18.5375C14.9231 18.5019 14.8514 18.4425 14.8064 18.4054C14.7615 18.3683 14.6117 18.2437 14.4737 18.1285C14.3355 18.0133 14.186 17.8886 14.1413 17.8517C13.9357 17.6817 13.3207 17.1699 13.1461 17.0235C13.0395 16.9341 12.8573 16.7833 12.7413 16.6884C12.6254 16.5933 12.4621 16.4575 12.3785 16.3864C12.2949 16.3153 12.1454 16.1906 12.0464 16.1094C11.9473 16.0282 11.8016 15.9056 11.7227 15.8371C11.6436 15.7686 11.5738 15.7125 11.5673 15.7125C11.561 15.7125 11.5335 15.6919 11.5062 15.6669C11.4471 15.6126 11.2933 15.4827 11.2066 15.414L11.1446 15.365L11.024 15.4694C10.9577 15.5269 10.895 15.5799 10.8846 15.5872C10.8743 15.5944 10.8035 15.6527 10.7272 15.7166C10.5207 15.8901 10.172 16.179 10.1072 16.2304C10.0758 16.2553 9.81825 16.4695 9.53475 16.7065C9.25125 16.9433 8.98237 17.1676 8.93717 17.205C8.89186 17.2422 8.82062 17.3017 8.77875 17.3372C8.73676 17.3728 8.66198 17.4352 8.61257 17.4757C8.56305 17.5164 8.48838 17.5786 8.44672 17.6142C8.40496 17.6498 8.33438 17.7079 8.28974 17.7435C8.2452 17.7791 8.17064 17.8413 8.12411 17.882C8.07747 17.9226 8.00712 17.9808 7.96757 18.0113C7.92813 18.0417 7.85369 18.1025 7.80206 18.1463C7.75055 18.1902 7.67931 18.25 7.64375 18.2791C7.60819 18.3084 7.51679 18.3846 7.44068 18.4487C7.36446 18.5128 7.29389 18.5712 7.28369 18.5785C7.2735 18.5859 7.19883 18.6482 7.11774 18.7169C7.03675 18.7857 6.96197 18.8481 6.95156 18.8555C6.94125 18.863 6.86537 18.9252 6.78294 18.994C6.70041 19.0628 6.55218 19.1856 6.45336 19.2668C6.35465 19.348 6.21439 19.4647 6.14172 19.5261C5.94562 19.692 5.89976 19.7197 5.8026 19.731C5.62678 19.7512 5.46692 19.6578 5.2767 19.4237C5.23959 19.378 5.15672 19.2776 5.09246 19.2005C5.02821 19.1235 4.94656 19.0244 4.911 18.9802C4.87555 18.9361 4.81727 18.8663 4.78182 18.8251C4.74626 18.7839 4.70881 18.74 4.69873 18.7275C4.68854 18.7151 4.65386 18.6734 4.62162 18.635C4.50696 18.4984 4.42088 18.3945 4.35707 18.3159C4.32162 18.272 4.26334 18.2015 4.22789 18.1592C4.19233 18.1168 4.12996 18.0416 4.08941 17.9922C4.04875 17.9427 3.95957 17.8353 3.89121 17.7536C3.72847 17.5589 3.59542 17.3986 3.5316 17.3202C3.50324 17.2853 3.42603 17.193 3.36 17.1149C3.29397 17.0369 3.21088 16.9371 3.17543 16.893C3.13987 16.849 3.08458 16.7817 3.05268 16.7433C2.96239 16.6351 2.90976 16.51 2.90223 16.3864C2.89148 16.2088 2.92195 16.1714 3.397 15.779C3.95414 15.3186 4.12951 15.1733 4.31231 15.0201C4.39717 14.949 4.54219 14.8286 4.6347 14.7523C4.80675 14.6105 4.98345 14.4641 5.2849 14.2132C5.37884 14.1349 5.54292 13.9991 5.6496 13.9113C5.75618 13.8233 5.88868 13.7129 5.94385 13.6657C5.99902 13.6185 6.0912 13.5425 6.14858 13.4968C6.20597 13.4511 6.37647 13.3098 6.52747 13.1829C6.67847 13.056 6.85285 12.9106 6.915 12.8598C7.01282 12.7798 7.60542 12.2865 8.23169 11.7637C8.33682 11.676 8.48638 11.5518 8.56404 11.4878C8.64182 11.4237 8.78251 11.3074 8.87668 11.2293C9.26831 10.9044 9.36768 10.8221 9.52766 10.6902C9.62016 10.6141 9.76795 10.4914 9.85614 10.4176C9.94421 10.3437 10.025 10.2772 10.0355 10.2698C10.046 10.2624 10.1125 10.2064 10.1832 10.1454C10.254 10.0844 10.3533 10.0016 10.4042 9.96139C10.4924 9.89171 10.6773 9.73772 10.8572 9.58417C11.006 9.457 11.1586 9.43007 11.3283 9.50086Z" fill="#00BA8B"/>
<path fill-rule="evenodd" clip-rule="evenodd" d="M28.0188 14.005C28.0188 20.2504 28.0209 22.8027 28.0234 19.6766C28.0261 16.5505 28.0261 11.4406 28.0234 8.32125C28.0209 5.20191 28.0188 7.75957 28.0188 14.005ZM11.0231 9.48359C10.9777 9.49976 10.9029 9.54529 10.857 9.58462C10.677 9.73817 10.4921 9.89216 10.404 9.96184C10.3531 10.0021 10.2537 10.0848 10.1829 10.1458C10.1123 10.2069 10.0458 10.2628 10.0353 10.2703C10.0247 10.2777 9.94398 10.3442 9.8559 10.418C9.76772 10.4918 9.61993 10.6146 9.52743 10.6907C9.36745 10.8225 9.26807 10.9048 8.87645 11.2298C8.78228 11.3079 8.64158 11.4242 8.56381 11.4882C8.48615 11.5522 8.33659 11.6764 8.23145 11.7642C7.60518 12.287 7.01259 12.7803 6.91477 12.8603C6.85261 12.911 6.67824 13.0565 6.52724 13.1833C6.37624 13.3103 6.20574 13.4515 6.14835 13.4973C6.09096 13.5429 5.99879 13.6189 5.94362 13.6661C5.88845 13.7133 5.75595 13.8238 5.64937 13.9117C5.54268 13.9996 5.37861 14.1354 5.28466 14.2136C4.98322 14.4645 4.80651 14.611 4.63446 14.7528C4.54196 14.829 4.39694 14.9494 4.31208 15.0205C4.12928 15.1738 3.95391 15.319 3.39677 15.7794C2.92172 16.1718 2.89125 16.2093 2.902 16.3868C2.90953 16.5105 2.96215 16.6356 3.05244 16.7438C3.08435 16.7821 3.13963 16.8495 3.17519 16.8935C3.21065 16.9375 3.29374 17.0374 3.35976 17.1154C3.42579 17.1935 3.50301 17.2857 3.53137 17.3206C3.59518 17.3991 3.72824 17.5594 3.89098 17.754C3.95934 17.8358 4.04852 17.9431 4.08918 17.9926C4.12972 18.0421 4.1921 18.1173 4.22766 18.1596C4.26311 18.2019 4.32138 18.2725 4.35683 18.3164C4.42065 18.3949 4.50673 18.4988 4.62139 18.6354C4.65363 18.6739 4.68831 18.7155 4.6985 18.7279C4.70858 18.7404 4.74602 18.7843 4.78159 18.8255C4.81704 18.8667 4.87531 18.9365 4.91076 18.9806C4.94633 19.0248 5.02797 19.124 5.09223 19.201C5.15649 19.2781 5.23935 19.3784 5.27647 19.4242C5.46669 19.6583 5.62655 19.7517 5.80237 19.7314C5.89953 19.7201 5.94539 19.6924 6.14148 19.5266C6.21416 19.4652 6.35441 19.3484 6.45312 19.2672C6.55194 19.186 6.70017 19.0633 6.78271 18.9945C6.86513 18.9257 6.94102 18.8634 6.95132 18.856C6.96174 18.8486 7.03652 18.7862 7.1175 18.7174C7.1986 18.6486 7.27327 18.5863 7.28346 18.5789C7.29365 18.5716 7.36422 18.5132 7.44044 18.4492C7.51655 18.385 7.60795 18.3088 7.64351 18.2796C7.67908 18.2504 7.75031 18.1906 7.80183 18.1467C7.85345 18.103 7.9279 18.0422 7.96734 18.0117C8.00689 17.9812 8.07724 17.9231 8.12388 17.8824C8.17041 17.8418 8.24497 17.7795 8.2895 17.7439C8.33415 17.7084 8.40472 17.6502 8.44649 17.6147C8.48814 17.5791 8.56281 17.5168 8.61233 17.4762C8.66174 17.4356 8.73653 17.3733 8.77851 17.3377C8.82039 17.3021 8.89163 17.2426 8.93694 17.2054C8.98214 17.1681 9.25101 16.9438 9.53451 16.7069C9.81802 16.4699 10.0756 16.2558 10.1069 16.2309C10.1718 16.1795 10.5205 15.8905 10.727 15.717C10.8032 15.6531 10.874 15.5948 10.8843 15.5876C10.8947 15.5803 10.9574 15.5274 11.0238 15.4699L11.1443 15.3654L11.2064 15.4145C11.293 15.4832 11.4469 15.613 11.5059 15.6673C11.5333 15.6923 11.5608 15.7129 11.5671 15.7129C11.5735 15.7129 11.6433 15.769 11.7224 15.8376C11.8014 15.906 11.9471 16.0287 12.0461 16.1099C12.1452 16.1911 12.2946 16.3157 12.3783 16.3868C12.4619 16.458 12.6252 16.5938 12.7411 16.6888C12.8571 16.7838 13.0392 16.9346 13.1459 17.024C13.3205 17.1703 13.9355 17.6821 14.1411 17.8522C14.1857 17.8891 14.3353 18.0137 14.4735 18.1289C14.6115 18.2441 14.7613 18.3688 14.8061 18.4059C14.8511 18.443 14.9229 18.5024 14.9658 18.5379C15.0087 18.5734 15.0795 18.6315 15.1231 18.6671C15.1667 18.7027 15.2444 18.7676 15.2958 18.8112C15.3472 18.855 15.4142 18.911 15.4447 18.9357C15.4752 18.9605 15.5381 19.012 15.5845 19.0501C15.6309 19.0883 15.7046 19.1486 15.7483 19.1841C15.7919 19.2197 15.8666 19.2819 15.9142 19.3226C15.9619 19.3633 16.0365 19.4255 16.0802 19.4611C16.1238 19.4966 16.1972 19.5575 16.2433 19.5962C16.4094 19.7362 16.4872 19.7627 16.6539 19.7364C16.7518 19.721 16.7873 19.6982 17.0326 19.4931C17.1037 19.4337 17.1909 19.3613 17.2265 19.332C17.262 19.3029 17.3368 19.2404 17.3927 19.1933C17.4485 19.1462 17.5233 19.0839 17.5588 19.0546C17.5944 19.0254 17.6613 18.9699 17.7077 18.9313C17.754 18.8927 17.8283 18.8319 17.8727 18.7964C17.9171 18.7608 18.0174 18.6777 18.0954 18.6117C18.1733 18.5457 18.3025 18.4377 18.3824 18.3718C18.4623 18.3057 18.5445 18.2378 18.5649 18.221C18.5854 18.204 18.7225 18.089 18.8698 17.9654C19.017 17.8417 19.1957 17.6935 19.2668 17.6363C19.3378 17.5789 19.4539 17.482 19.5247 17.421C19.5955 17.36 19.7002 17.2727 19.7574 17.2269C19.8785 17.1301 20.0913 16.9538 20.2925 16.7838C20.3706 16.7178 20.5199 16.5931 20.6243 16.5068C20.7287 16.4205 20.8814 16.2939 20.9636 16.2254C21.0459 16.1569 21.1381 16.0805 21.1686 16.0556C21.199 16.0308 21.2664 15.9746 21.3181 15.9309C21.37 15.8872 21.4485 15.8223 21.4928 15.7867C21.5371 15.7512 21.6074 15.693 21.649 15.6576C21.6907 15.622 21.7612 15.5638 21.8056 15.5283C21.8501 15.4927 21.921 15.4345 21.9633 15.399C22.0057 15.3634 22.0803 15.3012 22.1293 15.2605C22.1784 15.22 22.253 15.1576 22.2953 15.122C22.3376 15.0865 22.408 15.0283 22.4519 14.9929C22.4958 14.9573 22.5864 14.8818 22.6533 14.8251C22.7202 14.7684 22.7948 14.706 22.819 14.6866C22.8432 14.6671 22.918 14.6049 22.9852 14.5482C23.0524 14.4914 23.1239 14.4315 23.1443 14.415C23.1646 14.3985 23.3972 14.2048 23.6612 13.9847C24.2501 13.4937 24.3304 13.4271 24.5774 13.2243C24.8165 13.0279 24.8388 12.9949 24.8402 12.8336C24.8418 12.6702 24.7854 12.5403 24.6466 12.3876C24.5916 12.3272 24.559 12.2884 24.3997 12.094C24.3291 12.0077 24.2254 11.8823 24.1693 11.8155C24.1134 11.7486 24.0371 11.6572 24 11.6124C23.9629 11.5675 23.8353 11.4145 23.7165 11.2723C23.5977 11.1302 23.4743 10.9817 23.4424 10.9424C23.4104 10.9032 23.3095 10.7821 23.2181 10.6733C23.1267 10.5646 23.0242 10.4413 22.9903 10.3994C22.9563 10.3576 22.9148 10.3072 22.8979 10.2875C22.8811 10.2678 22.8424 10.2209 22.812 10.183C22.1109 9.31143 22.0473 9.29204 21.4754 9.77406C21.3168 9.90767 21.1364 10.0586 21.0744 10.1093C21.0125 10.1599 20.8221 10.3178 20.6515 10.4599C20.2073 10.83 19.9685 11.0288 19.8207 11.1514C19.7496 11.2105 19.6141 11.3241 19.5195 11.404C19.425 11.4839 19.3254 11.5659 19.2983 11.5863C19.2711 11.6065 19.1804 11.6813 19.0965 11.7524C19.0128 11.8234 18.8733 11.9398 18.7866 12.0109C18.6999 12.082 18.5596 12.1983 18.4748 12.2693C18.3901 12.3405 18.2438 12.461 18.15 12.5371C18.056 12.6133 17.9108 12.7338 17.8272 12.8049C17.7434 12.8759 17.5935 13.0005 17.4939 13.0818C17.3943 13.163 17.2831 13.255 17.2466 13.2862C16.9114 13.573 16.5944 13.8296 16.5753 13.8296C16.5536 13.8296 16.4434 13.7457 16.3125 13.6292C16.282 13.6021 16.2158 13.5468 16.1653 13.5062C16.1146 13.4658 15.9142 13.2996 15.7198 13.1372C15.2155 12.7157 14.6735 12.2646 14.5122 12.1318C14.323 11.9761 14.2264 11.8957 14.1164 11.8025C14.065 11.759 14.0129 11.7154 14.0007 11.7057C13.9885 11.696 13.918 11.6376 13.8439 11.5758C13.7697 11.5141 13.6765 11.4373 13.6367 11.4049C13.5968 11.3727 13.5256 11.313 13.4783 11.2723C13.431 11.2317 13.3607 11.1736 13.3221 11.1431C13.2834 11.1127 13.2127 11.0545 13.1651 11.0138C13.1173 10.9732 13.0474 10.915 13.0096 10.8846C12.9719 10.8541 12.8977 10.7928 12.8449 10.7483C12.7921 10.7039 12.7198 10.6435 12.6843 10.6144C12.6487 10.5851 12.5573 10.5093 12.4812 10.446C12.405 10.3826 12.3344 10.325 12.3242 10.318C12.314 10.311 12.2684 10.2731 12.2226 10.2338C12.177 10.1945 12.015 10.059 11.8627 9.93259C11.7105 9.8063 11.5422 9.66361 11.4889 9.61553C11.3321 9.47406 11.1743 9.4293 11.0231 9.48359Z" fill="#00BA8B"/>
</svg>
