<svg width="32" height="32" viewBox="0 0 32 32" fill="none" xmlns="http://www.w3.org/2000/svg">
<path fill-rule="evenodd" clip-rule="evenodd" d="M30.1823 1.93145L28.6836 3.43566L30.1878 1.93701C31.5861 0.544012 31.702 0.427246 31.6865 0.427246C31.6835 0.427246 31.0065 1.10417 30.1823 1.93145ZM28.4842 3.62859L28.397 3.72222L28.4908 3.63507C28.5778 3.55401 28.5946 3.53484 28.5778 3.53484C28.5742 3.53484 28.5322 3.57702 28.4842 3.62859ZM19.5149 12.5766L17.9282 14.169L19.5205 12.5822C20.3963 11.7095 21.1129 10.9929 21.1129 10.9899C21.1129 10.9744 20.99 11.0963 19.5149 12.5766ZM17.7732 14.3178L17.6416 14.4556L17.7794 14.324C17.8552 14.2517 17.9171 14.1896 17.9171 14.1862C17.9171 14.1699 17.8954 14.1898 17.7732 14.3178ZM10.0816 21.9876L9.72932 22.3457L10.0874 21.9934C10.2845 21.7995 10.4455 21.6383 10.4455 21.6352C10.4455 21.6194 10.409 21.6549 10.0816 21.9876ZM4.07582 27.9713L3.73438 28.3185L4.0815 27.9772C4.40404 27.6601 4.43868 27.6242 4.42295 27.6242C4.41977 27.6242 4.26347 27.7804 4.07582 27.9713Z" fill="#00BA8B"/>
<path fill-rule="evenodd" clip-rule="evenodd" d="M25.0596 7.03377L23.9686 8.13016L25.0651 7.03933C26.0843 6.02533 26.1716 5.93726 26.156 5.93726C26.1529 5.93726 25.6596 6.43064 25.0596 7.03377ZM13.6206 18.4503L13.2572 18.8195L13.6264 18.4561C13.9695 18.1184 14.0056 18.0811 13.9898 18.0811C13.9866 18.0811 13.8205 18.2473 13.6206 18.4503ZM6.40231 25.6463L6.22656 25.8281L6.40839 25.6522C6.50836 25.5555 6.59022 25.4737 6.59022 25.4704C6.59022 25.4544 6.56563 25.4774 6.40231 25.6463Z" fill="#00BA8B"/>
<path fill-rule="evenodd" clip-rule="evenodd" d="M22.8759 9.2157L22.0275 10.0697L22.8815 9.22125C23.6753 8.43272 23.7454 8.36157 23.7299 8.36157C23.7268 8.36157 23.3425 8.74599 22.8759 9.2157ZM21.9162 10.1744L21.8291 10.268L21.9228 10.1809C21.9743 10.133 22.0164 10.0908 22.0164 10.0873C22.0164 10.0706 21.9972 10.0873 21.9162 10.1744ZM11.2498 20.8196L10.6328 21.4422L11.2554 20.8251C11.8341 20.2519 11.888 20.1969 11.8724 20.1969C11.8693 20.1969 11.5892 20.4771 11.2498 20.8196Z" fill="#00BA8B"/>
<path fill-rule="evenodd" clip-rule="evenodd" d="M30.1823 1.93145L28.6836 3.43566L30.1878 1.93701C31.5861 0.544012 31.702 0.427246 31.6865 0.427246C31.6835 0.427246 31.0065 1.10417 30.1823 1.93145ZM28.4842 3.62859L28.397 3.72222L28.4908 3.63507C28.5778 3.55401 28.5946 3.53484 28.5778 3.53484C28.5742 3.53484 28.5322 3.57702 28.4842 3.62859ZM19.5149 12.5766L17.9282 14.169L19.5205 12.5822C20.3963 11.7095 21.1129 10.9929 21.1129 10.9899C21.1129 10.9744 20.99 11.0963 19.5149 12.5766ZM17.7732 14.3178L17.6416 14.4556L17.7794 14.324C17.8552 14.2517 17.9171 14.1896 17.9171 14.1862C17.9171 14.1699 17.8954 14.1898 17.7732 14.3178ZM10.0816 21.9876L9.72932 22.3457L10.0874 21.9934C10.2845 21.7995 10.4455 21.6383 10.4455 21.6352C10.4455 21.6194 10.409 21.6549 10.0816 21.9876ZM4.07582 27.9713L3.73438 28.3185L4.0815 27.9772C4.40404 27.6601 4.43868 27.6242 4.42295 27.6242C4.41977 27.6242 4.26347 27.7804 4.07582 27.9713Z" fill="#00BA8B"/>
<path fill-rule="evenodd" clip-rule="evenodd" d="M25.0596 7.03377L23.9686 8.13016L25.0651 7.03933C26.0843 6.02533 26.1716 5.93726 26.156 5.93726C26.1529 5.93726 25.6596 6.43064 25.0596 7.03377ZM13.6206 18.4503L13.2572 18.8195L13.6264 18.4561C13.9695 18.1184 14.0056 18.0811 13.9898 18.0811C13.9866 18.0811 13.8205 18.2473 13.6206 18.4503ZM6.40231 25.6463L6.22656 25.8281L6.40839 25.6522C6.50836 25.5555 6.59022 25.4737 6.59022 25.4704C6.59022 25.4544 6.56563 25.4774 6.40231 25.6463Z" fill="#00BA8B"/>
<path fill-rule="evenodd" clip-rule="evenodd" d="M22.8759 9.2157L22.0275 10.0697L22.8815 9.22125C23.6753 8.43272 23.7454 8.36157 23.7299 8.36157C23.7268 8.36157 23.3425 8.74599 22.8759 9.2157ZM21.9162 10.1744L21.8291 10.268L21.9228 10.1809C21.9743 10.133 22.0164 10.0908 22.0164 10.0873C22.0164 10.0706 21.9972 10.0873 21.9162 10.1744ZM11.2498 20.8196L10.6328 21.4422L11.2554 20.8251C11.8341 20.2519 11.888 20.1969 11.8724 20.1969C11.8693 20.1969 11.5892 20.4771 11.2498 20.8196Z" fill="#00BA8B"/>
<path fill-rule="evenodd" clip-rule="evenodd" d="M30.1823 1.93145L28.6836 3.43566L30.1878 1.93701C31.5861 0.544012 31.702 0.427246 31.6865 0.427246C31.6835 0.427246 31.0065 1.10417 30.1823 1.93145ZM28.4842 3.62859L28.397 3.72222L28.4908 3.63507C28.5778 3.55401 28.5946 3.53484 28.5778 3.53484C28.5742 3.53484 28.5322 3.57702 28.4842 3.62859ZM19.5149 12.5766L17.9282 14.169L19.5205 12.5822C20.3963 11.7095 21.1129 10.9929 21.1129 10.9899C21.1129 10.9744 20.99 11.0963 19.5149 12.5766ZM17.7732 14.3178L17.6416 14.4556L17.7794 14.324C17.8552 14.2517 17.9171 14.1896 17.9171 14.1862C17.9171 14.1699 17.8954 14.1898 17.7732 14.3178ZM10.0816 21.9876L9.72932 22.3457L10.0874 21.9934C10.2845 21.7995 10.4455 21.6383 10.4455 21.6352C10.4455 21.6194 10.409 21.6549 10.0816 21.9876ZM4.07582 27.9713L3.73438 28.3185L4.0815 27.9772C4.40404 27.6601 4.43868 27.6242 4.42295 27.6242C4.41977 27.6242 4.26347 27.7804 4.07582 27.9713Z" fill="#00BA8B"/>
<path fill-rule="evenodd" clip-rule="evenodd" d="M25.0596 7.03377L23.9686 8.13016L25.0651 7.03933C26.0843 6.02533 26.1716 5.93726 26.156 5.93726C26.1529 5.93726 25.6596 6.43064 25.0596 7.03377ZM13.6206 18.4503L13.2572 18.8195L13.6264 18.4561C13.9695 18.1184 14.0056 18.0811 13.9898 18.0811C13.9866 18.0811 13.8205 18.2473 13.6206 18.4503ZM6.40231 25.6463L6.22656 25.8281L6.40839 25.6522C6.50836 25.5555 6.59022 25.4737 6.59022 25.4704C6.59022 25.4544 6.56563 25.4774 6.40231 25.6463Z" fill="#00BA8B"/>
<path opacity="0.5" fill-rule="evenodd" clip-rule="evenodd" d="M24.8913 7.22146C21.0736 11.031 16.1068 15.988 13.8539 18.2371L9.75781 22.3263L9.93356 22.5019C10.0301 22.5985 10.2419 22.8064 10.4042 22.964C10.7523 23.3021 12.0352 24.5498 12.3386 24.8451C12.455 24.9584 12.6939 25.1917 12.8698 25.3634C13.0456 25.5352 13.531 26.0078 13.9485 26.4137C14.3661 26.8195 14.7984 27.2408 14.9092 27.3499C15.02 27.459 15.3627 27.7927 15.6708 28.0915C15.9788 28.3902 16.3796 28.7803 16.5614 28.9582C16.9579 29.3462 16.9982 29.3787 17.1489 29.4339C17.5006 29.5624 17.9128 29.3566 18.0073 29.0054C18.02 28.9582 18.0531 28.8837 18.0807 28.84C18.1083 28.7962 18.1386 28.7356 18.148 28.7054C18.1575 28.6751 18.1714 28.6452 18.1788 28.6392C18.2003 28.6219 18.2916 28.4278 18.2916 28.3999C18.2916 28.386 18.3005 28.3748 18.3112 28.3748C18.322 28.3748 18.3376 28.3475 18.346 28.3143C18.3544 28.2811 18.3678 28.2489 18.376 28.2427C18.3973 28.2265 18.6222 27.7674 18.6222 27.7402C18.6222 27.7275 18.6296 27.7138 18.6388 27.7099C18.6594 27.7006 18.8867 27.2444 18.8867 27.212C18.8867 27.1989 18.8941 27.1849 18.9032 27.1809C18.9239 27.1717 19.1512 26.7154 19.1512 26.683C19.1512 26.67 19.1586 26.6559 19.1677 26.652C19.1879 26.643 19.4157 26.1819 19.4157 26.1497C19.4157 26.137 19.4245 26.1267 19.4352 26.1267C19.4461 26.1267 19.4613 26.1011 19.4692 26.0697C19.477 26.0384 19.5057 25.9765 19.5328 25.9319C19.5599 25.8875 19.6066 25.7966 19.6364 25.73C19.6663 25.6632 19.6968 25.6037 19.7045 25.5978C19.712 25.5917 19.7259 25.5619 19.7352 25.5316C19.7445 25.5014 19.7583 25.4715 19.7657 25.4655C19.7878 25.4475 19.9446 25.1221 19.9446 25.0943C19.9446 25.0803 19.9535 25.0688 19.9642 25.0688C19.975 25.0688 19.9906 25.0416 19.999 25.0084C20.0074 24.9752 20.0208 24.9429 20.029 24.9367C20.0494 24.9212 20.2752 24.4588 20.2752 24.4325C20.2752 24.4209 20.2826 24.4079 20.2918 24.4039C20.3112 24.3953 20.5397 23.9338 20.5397 23.9031C20.5397 23.8916 20.5471 23.8789 20.5562 23.875C20.5757 23.8664 20.8042 23.4049 20.8042 23.3742C20.8042 23.3627 20.8116 23.35 20.8207 23.346C20.8401 23.3374 21.0687 22.8759 21.0687 22.8452C21.0687 22.8337 21.0761 22.821 21.0852 22.8171C21.1052 22.8082 23.3829 18.2493 23.3829 18.2181C23.3829 18.2059 23.3903 18.1927 23.3994 18.1887C23.4188 18.1801 23.6473 17.7186 23.6473 17.688C23.6473 17.6765 23.6547 17.6638 23.6639 17.6598C23.6845 17.6507 25.4987 14.0162 25.4987 13.9841C25.4987 13.9713 25.5078 13.9608 25.5189 13.9608C25.53 13.9608 25.5458 13.9311 25.5537 13.8947C25.5618 13.8583 25.5774 13.8286 25.5886 13.8286C25.5997 13.8286 25.6088 13.8179 25.6088 13.8048C25.6088 13.7859 26.1787 12.6353 26.3229 12.3629C26.3421 12.3265 26.358 12.2852 26.3581 12.2711C26.3581 12.2569 26.3656 12.242 26.3748 12.238C26.3838 12.2339 26.4159 12.1761 26.4462 12.1095C26.4763 12.0427 26.5061 11.9833 26.5123 11.9773C26.5185 11.9712 26.5467 11.9166 26.575 11.856C26.676 11.6399 26.6999 11.5914 26.7108 11.5805C26.7216 11.5697 27.073 10.863 27.1767 10.6438C27.2052 10.5832 27.2337 10.5286 27.2397 10.5226C27.2458 10.5166 27.2678 10.4769 27.2884 10.4344C27.4326 10.1389 27.5394 9.92242 27.6666 9.66812C27.747 9.50732 27.8129 9.36596 27.8129 9.35406C27.8129 9.34216 27.8217 9.33251 27.8324 9.33251C27.8433 9.33251 27.8589 9.30526 27.8672 9.27207C27.8757 9.23888 27.889 9.20661 27.8972 9.2004C27.9197 9.18347 28.0774 8.8583 28.0774 8.82907C28.0774 8.81506 28.0873 8.80355 28.0993 8.80355C28.1115 8.80355 28.1214 8.79112 28.1215 8.77591C28.1217 8.76084 28.1375 8.71866 28.157 8.68229C28.2977 8.41861 28.9369 7.1322 28.9369 7.11263C28.9369 7.09914 28.9443 7.08473 28.9534 7.08076C28.9743 7.0715 29.2014 6.61594 29.2014 6.58328C29.2014 6.57005 29.2088 6.55577 29.2179 6.55181C29.2314 6.54572 30.2375 4.54166 30.4164 4.16412C30.4451 4.10355 30.4735 4.04894 30.4796 4.04299C30.4893 4.03333 30.5723 3.8646 30.6966 3.60211C30.7167 3.55979 30.7405 3.52171 30.7497 3.51761C30.7588 3.51364 30.7662 3.49975 30.7662 3.48693C30.7662 3.45479 30.9275 3.13002 30.948 3.12089C30.9571 3.11693 30.9645 3.10317 30.9645 3.09035C30.9645 3.06668 31.0543 2.87308 31.0747 2.85285C31.0968 2.8309 31.3833 2.2394 31.3833 2.21586C31.3833 2.2025 31.3922 2.19166 31.4029 2.19166C31.4138 2.19166 31.4294 2.16442 31.4377 2.13123C31.4462 2.09803 31.4595 2.06577 31.4677 2.05955C31.4758 2.05347 31.4989 2.01367 31.5192 1.97122C31.5648 1.87508 31.8302 1.34441 31.8773 1.25488C31.8963 1.21852 31.912 1.17647 31.9122 1.16126C31.9122 1.14605 31.9212 1.13375 31.9321 1.13375C32.0467 1.13375 31.986 0.453391 31.8597 0.323269C31.838 0.300788 30.4545 1.67024 24.8913 7.22146ZM6.7003 25.3665C6.15931 25.901 6.19052 25.8171 6.43582 26.0777C6.57653 26.227 6.85516 26.5335 7.02006 26.7203C7.06753 26.774 7.13603 26.8489 7.1724 26.8866C7.20876 26.9242 7.32778 27.0537 7.43688 27.174C7.69911 27.4635 7.82183 27.5983 7.88874 27.6701C7.91902 27.7027 8.02812 27.8223 8.13113 27.9359C8.23415 28.0495 8.373 28.2014 8.43978 28.2735C8.50643 28.3455 8.57586 28.4213 8.59397 28.4418C9.23401 29.1611 9.25636 29.1778 9.57479 29.1784C9.98725 29.179 10.236 28.9306 10.236 28.518C10.236 28.2708 10.1947 28.1906 9.90539 27.8765C9.64819 27.5972 9.6589 27.609 9.53076 27.4692C9.47006 27.4032 9.33623 27.2556 9.23322 27.1415C9.13007 27.0274 9.01608 26.903 8.97972 26.8649C8.94335 26.8269 8.84417 26.7177 8.75927 26.6222C8.67451 26.5266 8.57533 26.4176 8.53896 26.38C8.462 26.3003 8.17305 25.982 8.05285 25.8449C8.00736 25.7929 7.93449 25.7128 7.89086 25.6668C7.7934 25.5639 7.49718 25.237 7.33611 25.0545C7.27026 24.9801 7.20665 24.9148 7.19448 24.9096C7.18232 24.9043 6.96002 25.1099 6.7003 25.3665ZM3.97114 28.0897C3.44589 28.6099 3.47009 28.5709 3.59651 28.6937C3.64795 28.7437 3.81907 28.9224 3.9767 29.0904C4.13419 29.2586 4.32264 29.4571 4.39537 29.5316C4.537 29.6764 5.20732 30.3803 5.44297 30.6315C5.52139 30.7151 5.64503 30.8448 5.71776 30.9198C5.79049 30.9949 6.03553 31.2488 6.26206 31.4842C6.73363 31.9739 6.77317 31.9997 7.0518 32.0001C7.69064 32.0009 7.94375 31.2927 7.47761 30.8085C7.22807 30.5493 6.59398 29.8827 6.45421 29.7326C6.37645 29.6491 6.24844 29.5147 6.16963 29.4339C6.04426 29.3052 5.6613 28.9037 5.10668 28.3196C5.01465 28.2227 4.82687 28.0268 4.68947 27.8846L4.43954 27.6258L3.97114 28.0897Z" fill="#00BA8B"/>
<path fill-rule="evenodd" clip-rule="evenodd" d="M31.0753 0.0269184C30.9744 0.0648707 30.5885 0.251855 30.5684 0.272484C30.5624 0.2787 30.2747 0.426145 29.9293 0.60017C29.5838 0.774327 29.0085 1.06604 28.651 1.24853C28.2934 1.43115 27.7032 1.73001 27.3396 1.9129C26.9759 2.09565 26.6735 2.25023 26.6674 2.25632C26.6613 2.26227 26.3985 2.39741 26.0833 2.5565C25.7682 2.71558 25.2028 3.00214 24.827 3.19336C24.4513 3.38444 23.8463 3.69176 23.4827 3.87636C23.119 4.06084 22.5438 4.35335 22.2043 4.52618C21.2858 4.9943 20.3242 5.48305 19.5816 5.85967C19.2179 6.04401 18.6377 6.3389 18.2923 6.51504C17.1169 7.11421 16.4309 7.46332 15.7648 7.80119C15.1362 8.12014 14.62 8.38264 13.2341 9.08865C12.9068 9.25527 12.3018 9.56273 11.8896 9.77179C11.4774 9.98073 10.9121 10.2683 10.6333 10.4109C9.84625 10.8134 8.69338 11.3983 7.96646 11.7642C7.6028 11.9472 7.30037 12.102 7.29429 12.108C7.28821 12.1141 7.03034 12.2466 6.7213 12.4024C6.41212 12.5583 5.8468 12.845 5.46502 13.0394C4.83715 13.3589 3.77235 13.8997 3.21007 14.1846C2.94427 14.3192 2.81415 14.4631 2.77633 14.6639C2.76363 14.731 2.73731 14.8585 2.71761 14.9473C2.67675 15.1323 2.68825 15.3275 2.74736 15.4545C2.78942 15.5448 2.87524 15.6319 3.92099 16.6482C4.32657 17.0421 4.73916 17.4438 4.83794 17.5408C4.93672 17.6377 5.27817 17.97 5.59673 18.2791C5.9153 18.5882 6.28689 18.9502 6.42257 19.0836C6.55824 19.2169 6.96038 19.6086 7.31624 19.9541C8.19973 20.8118 8.64498 21.2452 8.92401 21.5189C9.05374 21.6462 9.2919 21.8779 9.45336 22.0338L9.74667 22.3173L11.865 20.2017C14.2359 17.8339 24.605 7.48725 28.976 3.1275C30.5428 1.56484 31.8247 0.277906 31.8247 0.267591C31.8247 0.096211 31.3209 -0.0655159 31.0753 0.0269184ZM3.33636 21.3718C2.91981 21.5706 2.82565 22.1054 3.14501 22.4576C3.18799 22.505 3.30357 22.6329 3.40182 22.7417C3.50007 22.8505 3.6302 22.9937 3.69076 23.0599C3.82776 23.2092 3.82684 23.2081 4.05442 23.4599C4.21417 23.6365 4.3431 23.7779 4.49518 23.9432C4.51342 23.9629 4.6175 24.0777 4.72659 24.1982C4.83569 24.3186 4.98023 24.4767 5.04767 24.5494C5.11511 24.6221 5.21429 24.7302 5.26798 24.7895C5.3218 24.8488 5.39559 24.9294 5.43196 24.9687C5.46833 25.008 5.56883 25.1181 5.65531 25.2135C5.7418 25.3088 5.83595 25.4122 5.86465 25.4432C5.89334 25.4743 5.9834 25.5734 6.06486 25.6636L6.21297 25.8277L6.68797 25.3649C6.94928 25.1103 7.16284 24.8937 7.16258 24.8835C7.16205 24.8662 7.08535 24.7778 6.93063 24.6162C6.89426 24.5782 6.79508 24.469 6.71019 24.3734C6.62542 24.2779 6.53114 24.173 6.50085 24.1405C6.47057 24.108 6.39123 24.0231 6.32458 23.9517C6.2578 23.8803 6.13389 23.7435 6.04899 23.6477C5.96422 23.5519 5.86994 23.4476 5.83965 23.4158C5.78028 23.3538 5.42482 22.9652 5.26521 22.7878C5.21138 22.7281 5.14262 22.6528 5.11234 22.6207C5.08205 22.5884 5.01382 22.5133 4.96066 22.4538C4.68441 22.144 4.29285 21.7188 4.14262 21.5656C3.89639 21.3144 3.60388 21.2441 3.33636 21.3718ZM0.45129 23.9816C0.0520587 24.0826 -0.139953 24.6799 0.116195 25.0232C0.151107 25.07 0.503789 25.4458 0.910954 25.87C0.969933 25.9317 1.14846 26.1196 1.30767 26.2876C1.46676 26.4559 1.65652 26.655 1.72925 26.7303C1.99016 27 2.64038 27.682 2.77844 27.8306C2.85593 27.9139 2.97416 28.038 3.04107 28.1061C3.10798 28.1743 3.23348 28.3053 3.31996 28.3975L3.47733 28.5651L3.95392 28.0881L4.43038 27.6112L4.30647 27.4798C4.23823 27.4076 4.09661 27.2587 3.99174 27.149C3.88687 27.0393 3.70676 26.8503 3.59158 26.7291C3.4764 26.6078 3.19804 26.3157 2.9731 26.0799C2.74803 25.8443 2.48527 25.5683 2.389 25.4668C2.29286 25.3653 2.15454 25.2205 2.0818 25.145C1.59569 24.6404 1.18059 24.2027 1.14356 24.1557C1.02931 24.0104 0.682312 23.923 0.45129 23.9816Z" fill="#00BA8B"/>
<path fill-rule="evenodd" clip-rule="evenodd" d="M22.8759 9.2157L22.0275 10.0697L22.8815 9.22125C23.6753 8.43272 23.7454 8.36157 23.7299 8.36157C23.7268 8.36157 23.3425 8.74599 22.8759 9.2157ZM21.9162 10.1744L21.8291 10.268L21.9228 10.1809C21.9743 10.133 22.0164 10.0908 22.0164 10.0873C22.0164 10.0706 21.9972 10.0873 21.9162 10.1744ZM11.2498 20.8196L10.6328 21.4422L11.2554 20.8251C11.8341 20.2519 11.888 20.1969 11.8724 20.1969C11.8693 20.1969 11.5892 20.4771 11.2498 20.8196Z" fill="#00BA8B"/>
<path fill-rule="evenodd" clip-rule="evenodd" d="M30.1823 1.93145L28.6836 3.43566L30.1878 1.93701C31.5861 0.544012 31.702 0.427246 31.6865 0.427246C31.6835 0.427246 31.0065 1.10417 30.1823 1.93145ZM28.4842 3.62859L28.397 3.72222L28.4908 3.63507C28.5778 3.55401 28.5946 3.53484 28.5778 3.53484C28.5742 3.53484 28.5322 3.57702 28.4842 3.62859ZM19.5149 12.5766L17.9282 14.169L19.5205 12.5822C20.3963 11.7095 21.1129 10.9929 21.1129 10.9899C21.1129 10.9744 20.99 11.0963 19.5149 12.5766ZM17.7732 14.3178L17.6416 14.4556L17.7794 14.324C17.8552 14.2517 17.9171 14.1896 17.9171 14.1862C17.9171 14.1699 17.8954 14.1898 17.7732 14.3178ZM10.0816 21.9876L9.72932 22.3457L10.0874 21.9934C10.2845 21.7995 10.4455 21.6383 10.4455 21.6352C10.4455 21.6194 10.409 21.6549 10.0816 21.9876ZM4.07582 27.9713L3.73438 28.3185L4.0815 27.9772C4.40404 27.6601 4.43868 27.6242 4.42295 27.6242C4.41977 27.6242 4.26347 27.7804 4.07582 27.9713Z" fill="#00BA8B"/>
<path fill-rule="evenodd" clip-rule="evenodd" d="M25.0596 7.03377L23.9686 8.13016L25.0651 7.03933C26.0843 6.02533 26.1716 5.93726 26.156 5.93726C26.1529 5.93726 25.6596 6.43064 25.0596 7.03377ZM13.6206 18.4503L13.2572 18.8195L13.6264 18.4561C13.9695 18.1184 14.0056 18.0811 13.9898 18.0811C13.9866 18.0811 13.8205 18.2473 13.6206 18.4503ZM6.40231 25.6463L6.22656 25.8281L6.40839 25.6522C6.50836 25.5555 6.59022 25.4737 6.59022 25.4704C6.59022 25.4544 6.56563 25.4774 6.40231 25.6463Z" fill="#00BA8B"/>
</svg>
