<svg width="32" height="32" viewBox="0 0 32 32" fill="none" xmlns="http://www.w3.org/2000/svg">
<path fill-rule="evenodd" clip-rule="evenodd" d="M25.1183 6.40943C24.6338 6.47679 24.0736 6.75156 23.699 7.10561C23.5605 7.23648 23.514 7.28734 23.286 7.55765C23.2388 7.61372 23.0772 7.80377 22.9271 7.98004C22.777 8.15632 22.6111 8.35133 22.5583 8.41335C22.5055 8.4755 22.4251 8.56904 22.3797 8.62114C22.3342 8.67337 22.255 8.76628 22.2039 8.82769C22.1528 8.88909 22.0737 8.98238 22.0281 9.03485C21.9827 9.08733 21.9068 9.17627 21.8594 9.23234C21.8122 9.28841 21.6506 9.47846 21.5005 9.65474C21.3504 9.83101 21.1845 10.026 21.1317 10.088C21.0789 10.1502 20.9985 10.2437 20.9531 10.2958C20.9076 10.3481 20.8284 10.441 20.7773 10.5024C20.7262 10.5638 20.6471 10.6571 20.6015 10.7095C20.5561 10.762 20.4802 10.851 20.4328 10.907C20.3856 10.9631 20.2241 11.1532 20.074 11.3294C19.9239 11.5057 19.7579 11.7007 19.7052 11.7627C19.6523 11.8249 19.5719 11.9184 19.5265 11.9705C19.481 12.0228 19.4018 12.1157 19.3507 12.1771C19.2996 12.2385 19.2205 12.3318 19.175 12.3842C19.1296 12.4367 19.0504 12.5297 18.9993 12.5908C18.9481 12.6519 18.8643 12.7496 18.8132 12.8077C18.762 12.8661 18.6317 13.0191 18.5237 13.1479C18.4158 13.2768 18.318 13.3925 18.3066 13.4052C18.2602 13.4568 18.011 13.7479 17.9241 13.852C17.873 13.9133 17.7939 14.0065 17.7484 14.0589C17.703 14.1114 17.6238 14.2044 17.5727 14.2655C17.5215 14.3266 17.4377 14.4243 17.3866 14.4824C17.3354 14.5407 17.2051 14.6938 17.0971 14.8226C16.9892 14.9515 16.8914 15.0672 16.88 15.0799C16.8687 15.0925 16.7955 15.1773 16.7175 15.2682C16.6393 15.3591 16.5555 15.4567 16.5311 15.4851C16.5066 15.5136 16.4082 15.6299 16.3123 15.7435C16.2166 15.8573 16.1283 15.961 16.1162 15.9742C16.1042 15.9873 16.0293 16.0749 15.9496 16.1688C15.8701 16.2627 15.7399 16.4158 15.6602 16.5089C15.5806 16.602 15.4736 16.7281 15.4224 16.7892C15.3713 16.8502 15.2887 16.947 15.2389 17.0042C15.115 17.1467 15.0854 17.1814 14.8858 17.4182C14.79 17.532 14.7017 17.6357 14.6896 17.6489C14.6776 17.662 14.6027 17.7496 14.523 17.8435C14.4435 17.9374 14.3133 18.0905 14.2336 18.1836C14.154 18.2767 14.047 18.4028 13.9958 18.4639C13.9447 18.5249 13.8621 18.6217 13.8123 18.6789C13.7626 18.736 13.7022 18.8061 13.678 18.8347C13.6538 18.8631 13.5883 18.9403 13.5324 19.0063C13.3654 19.2033 13.3654 19.2033 12.8794 18.7188C12.8624 18.7018 12.821 18.6627 12.7876 18.632C12.6621 18.5167 12.2796 18.1521 11.9693 17.8524C11.7928 17.6818 11.5329 17.4354 11.3917 17.3046C11.2506 17.1737 10.9996 16.9364 10.8339 16.7773C10.6683 16.618 10.3753 16.3389 10.1827 16.157C9.9902 15.975 9.72286 15.722 9.58852 15.5943C9.22728 15.2512 9.04803 15.1173 8.7668 14.9811C7.83332 14.5291 6.78595 14.6562 5.96349 15.3218C5.81587 15.4412 5.4983 15.7705 5.4983 15.8042C5.4983 15.809 5.46245 15.8672 5.41841 15.9333C4.90335 16.7093 4.86129 17.7599 5.31247 18.5775C5.50748 18.9309 5.64567 19.0888 6.25253 19.6519C6.41144 19.7993 6.6722 20.0455 6.83197 20.1991C6.99175 20.3526 7.24655 20.5946 7.39814 20.7366C7.54986 20.8788 7.71249 21.0333 7.75951 21.0802C7.80652 21.127 8.01245 21.3223 8.21713 21.514C8.42182 21.706 8.70564 21.9756 8.84768 22.1133C8.98985 22.2512 9.23137 22.4793 9.38433 22.6202C9.53741 22.7613 9.71952 22.9323 9.78911 23.0005C9.8587 23.0688 10.087 23.2875 10.2962 23.4865C10.5055 23.6854 10.7156 23.8855 10.7632 23.9309C10.8105 23.9765 10.8906 24.0509 10.9408 24.0964C10.9909 24.1418 11.2177 24.3562 11.4446 24.5728C11.9967 25.0996 12.2407 25.2663 12.6706 25.4099C13.5397 25.7002 14.396 25.5924 15.102 25.1038C15.3694 24.9189 15.4387 24.8502 15.867 24.3443C15.9806 24.2101 16.1388 24.0242 16.2184 23.9313C16.2981 23.8384 16.4562 23.6523 16.5699 23.5178C16.6836 23.3832 16.8465 23.1925 16.9317 23.0936C17.0171 22.9948 17.1798 22.8042 17.2936 22.6698C17.4072 22.5354 17.5654 22.3495 17.645 22.2566C17.7247 22.1637 17.8828 21.9776 17.9965 21.8432C18.1102 21.7086 18.2731 21.5178 18.3583 21.4189C18.4437 21.3202 18.6064 21.1294 18.7202 20.9949C18.8338 20.8603 18.9967 20.6694 19.0819 20.5705C19.1673 20.4716 19.3254 20.2857 19.4335 20.1572C19.5414 20.0288 19.6997 19.8429 19.7849 19.7442C19.8703 19.6455 20.033 19.4547 20.1468 19.3202C20.2604 19.1856 20.4233 18.9947 20.5085 18.8958C20.5939 18.7969 20.752 18.611 20.8601 18.4825C20.968 18.3541 21.1263 18.1684 21.2115 18.0698C21.2969 17.9711 21.4596 17.7805 21.5734 17.646C21.687 17.5115 21.8499 17.3206 21.9351 17.2219C22.0204 17.1231 22.1786 16.9373 22.2867 16.8089C22.3946 16.6805 22.5529 16.4946 22.6381 16.3956C22.7234 16.2967 22.8862 16.1058 23 15.9713C23.1136 15.8368 23.2765 15.6459 23.3617 15.5472C23.447 15.4484 23.6052 15.2626 23.7132 15.1342C23.8212 15.0058 23.9795 14.8199 24.0647 14.7209C24.15 14.622 24.3128 14.4311 24.4265 14.2966C24.5402 14.1621 24.7031 13.9712 24.7883 13.8725C24.8736 13.7737 25.0364 13.5828 25.1501 13.4482C25.2639 13.3138 25.4221 13.1277 25.5016 13.0348C25.5812 12.942 25.7394 12.756 25.8531 12.6217C25.9668 12.4873 26.1296 12.2965 26.2149 12.1978C26.3002 12.099 26.463 11.9081 26.5767 11.7735C26.6905 11.6391 26.8486 11.453 26.9282 11.3601C27.0078 11.2673 27.166 11.0811 27.2797 10.9464C27.3934 10.8116 27.5193 10.6636 27.5595 10.6175C27.8774 10.2517 28.0883 9.67372 28.1106 9.1068C28.1741 7.49327 26.7241 6.18626 25.1183 6.40943Z" fill="#00BA8B"/>
<path opacity="0.5" fill-rule="evenodd" clip-rule="evenodd" d="M2.84187 0.0214851C2.44689 0.0554752 1.73397 0.295018 1.57394 0.447477C1.55893 0.461867 1.53338 0.473528 1.51713 0.473528C1.50088 0.473528 1.4876 0.482832 1.4876 0.494244C1.4876 0.505533 1.47793 0.514837 1.46614 0.514837C1.44406 0.514837 1.34172 0.583313 1.28056 0.638888C1.26183 0.656007 1.19993 0.708977 1.14299 0.756861C0.98445 0.889844 0.722578 1.15779 0.722578 1.18719C0.722578 1.19365 0.698883 1.22416 0.669979 1.25493C0.641075 1.28569 0.597286 1.34338 0.572848 1.3832C0.54841 1.42302 0.522234 1.46023 0.514667 1.46594C0.500153 1.47698 0.268922 1.92989 0.224512 2.03447C0.115222 2.29138 0.0136245 2.83137 0.012508 3.16135C0.0123839 3.21246 0.0138725 8.98866 0.0159814 15.9973C0.0180903 23.006 0.0148651 28.7482 0.00891059 28.7579C-0.0429429 28.8418 0.144871 29.8592 0.227985 29.945C0.238529 29.9558 0.247089 29.9799 0.247089 29.9986C0.247089 30.0389 0.37114 30.2945 0.395578 30.3044C0.404882 30.3082 0.412449 30.3224 0.412449 30.336C0.412449 30.3617 0.58364 30.6469 0.631276 30.7007C0.64641 30.7177 0.69355 30.7736 0.736099 30.8248C0.872556 30.9893 1.06025 31.1765 1.19819 31.2859C1.272 31.3444 1.33713 31.3972 1.34283 31.4031C1.34854 31.4091 1.37186 31.4252 1.39456 31.439C1.69402 31.6197 1.82515 31.6922 1.91161 31.7245C1.9683 31.7459 2.01941 31.7688 2.02512 31.7755C2.04819 31.8028 2.45868 31.92 2.61436 31.944C2.68259 31.9544 2.86519 31.9721 3.02001 31.9833C3.44203 32.0137 29.1555 31.9989 29.2648 31.9682C29.3102 31.9554 29.4405 31.9218 29.5542 31.8936C29.8253 31.8263 29.8975 31.8008 30.1538 31.6815C30.2448 31.6392 30.3238 31.5989 30.3295 31.5919C30.3352 31.5851 30.3608 31.5677 30.3864 31.5536C30.5032 31.4887 30.5262 31.4745 30.5525 31.4501C30.568 31.436 30.5869 31.4242 30.5946 31.424C30.6023 31.4238 30.6383 31.3983 30.6745 31.3671C30.7107 31.336 30.7678 31.2895 30.8013 31.2637C30.8787 31.2041 31.1049 30.9795 31.1933 30.8743C31.2306 30.83 31.2845 30.7659 31.313 30.7318C31.3415 30.6976 31.3928 30.6232 31.4268 30.5663C31.5251 30.4022 31.5384 30.3808 31.5493 30.3699C31.5684 30.3508 31.6528 30.1692 31.6528 30.1471C31.6528 30.1351 31.6604 30.1222 31.6695 30.1183C31.6929 30.1088 31.8389 29.6951 31.8389 29.6385C31.8389 29.6132 31.8473 29.5837 31.8577 29.5729C31.8887 29.5406 31.9222 29.3042 31.9437 28.9666C31.9745 28.481 31.9578 2.80408 31.9266 2.69616C31.9134 2.65063 31.8937 2.57148 31.8828 2.52037C31.8226 2.2389 31.709 1.90099 31.6683 1.88287C31.6597 1.87915 31.6528 1.867 31.6528 1.85596C31.6528 1.8304 31.5692 1.64519 31.5514 1.6313C31.5441 1.62559 31.5279 1.59781 31.5151 1.56927C31.4286 1.37563 30.9837 0.862429 30.7527 0.690122C30.7076 0.65638 30.666 0.624126 30.6604 0.61842C30.6299 0.587531 30.5142 0.514837 30.4958 0.514837C30.484 0.514837 30.4742 0.50789 30.4742 0.499331C30.4739 0.472039 30.1879 0.317471 30.0091 0.248126C29.9409 0.221703 29.8557 0.187094 29.8198 0.171339C29.7841 0.155585 29.7392 0.142683 29.7203 0.142683C29.7013 0.142683 29.668 0.133131 29.6461 0.12147C29.5903 0.0915741 29.4447 0.0618017 29.1924 0.0285559C28.9409 -0.00456576 3.22407 -0.0113885 2.84187 0.0214851ZM26.0188 6.4368C26.8129 6.61456 27.4708 7.12144 27.8277 7.83064C28.2867 8.74279 28.1745 9.90875 27.5597 10.6161C27.5195 10.6622 27.3936 10.8102 27.28 10.9449C27.1662 11.0797 27.0081 11.2659 26.9284 11.3587C26.8489 11.4516 26.6907 11.6377 26.577 11.7721C26.4632 11.9067 26.3005 12.0976 26.2151 12.1964C26.1299 12.2951 25.967 12.4859 25.8534 12.6203C25.7396 12.7546 25.5815 12.9406 25.5018 13.0334C25.4223 13.1263 25.2641 13.3123 25.1504 13.4468C25.0366 13.5814 24.8739 13.7723 24.7885 13.8711C24.7033 13.9698 24.5404 14.1607 24.4268 14.2952C24.313 14.4297 24.1503 14.6206 24.0649 14.7195C23.9797 14.8185 23.8214 15.0044 23.7135 15.1328C23.6055 15.2612 23.4473 15.447 23.3619 15.5458C23.2767 15.6445 23.1138 15.8354 23.0002 15.9699C22.8865 16.1044 22.7237 16.2953 22.6384 16.3942C22.5531 16.4931 22.3948 16.6791 22.2869 16.8075C22.1789 16.9359 22.0207 17.1217 21.9354 17.2205C21.8501 17.3192 21.6873 17.5101 21.5736 17.6446C21.4599 17.7791 21.2971 17.9697 21.2118 18.0683C21.1265 18.167 20.9683 18.3527 20.8603 18.4811C20.7523 18.6096 20.5941 18.7955 20.5088 18.8944C20.4235 18.9933 20.2607 19.1842 20.147 19.3188C20.0333 19.4533 19.8705 19.644 19.7852 19.7428C19.6999 19.8415 19.5417 20.0274 19.4337 20.1558C19.3257 20.2843 19.1675 20.4702 19.0822 20.5691C18.997 20.668 18.8341 20.8589 18.7204 20.9935C18.6067 21.128 18.4439 21.3187 18.3586 21.4175C18.2734 21.5164 18.1105 21.7071 17.9967 21.8417C17.8831 21.9762 17.7249 22.1623 17.6453 22.2552C17.5656 22.3481 17.4075 22.534 17.2939 22.6684C17.1801 22.8028 17.0173 22.9934 16.932 23.0922C16.8468 23.191 16.6839 23.3818 16.5701 23.5164C16.4565 23.6509 16.2983 23.837 16.2187 23.9299C16.1391 24.0228 15.9809 24.2086 15.8673 24.3429C15.4389 24.8487 15.3697 24.9175 15.1022 25.1024C14.3963 25.5909 13.5399 25.6987 12.6708 25.4085C12.241 25.2649 11.997 25.0982 11.4448 24.5714C11.2179 24.3548 10.9912 24.1404 10.9411 24.095C10.8908 24.0495 10.8108 23.9751 10.7634 23.9295C10.7159 23.8841 10.5058 23.684 10.2965 23.4851C10.0872 23.2861 9.85896 23.0674 9.78936 22.9991C9.71977 22.9309 9.53767 22.7598 9.38459 22.6188C9.23163 22.4779 8.9901 22.2497 8.84794 22.1119C8.7059 21.9742 8.42207 21.7045 8.21739 21.5126C8.0127 21.3209 7.80678 21.1256 7.75976 21.0788C7.71275 21.0319 7.55012 20.8774 7.3984 20.7352C7.24681 20.5932 6.99201 20.3511 6.83223 20.1977C6.67245 20.0441 6.4117 19.7979 6.25279 19.6505C5.64593 19.0874 5.50773 18.9295 5.31273 18.5761C4.86155 17.7585 4.9036 16.7079 5.41867 15.9319C5.4627 15.8658 5.49855 15.8076 5.49855 15.8028C5.49855 15.7905 5.53775 15.7445 5.68897 15.5795C6.35773 14.8493 7.3891 14.5433 8.30013 14.8049C8.81891 14.9539 9.09158 15.1206 9.58877 15.5929C9.72312 15.7206 9.99045 15.9736 10.183 16.1556C10.3755 16.3375 10.6685 16.6166 10.8341 16.7759C10.9999 16.935 11.2508 17.1723 11.392 17.3032C11.5332 17.434 11.793 17.6804 11.9696 17.851C12.2798 18.1507 12.6624 18.5153 12.7878 18.6306C12.8213 18.6613 12.8626 18.7004 12.8796 18.7174C13.3656 19.2019 13.3656 19.2019 13.5326 19.0049C13.5886 18.9389 13.6541 18.8617 13.6783 18.8333C13.7024 18.8047 13.7629 18.7346 13.8126 18.6774C13.8623 18.6203 13.945 18.5235 13.9961 18.4625C14.0473 18.4014 14.1542 18.2753 14.2339 18.1822C14.3135 18.0891 14.4438 17.936 14.5233 17.8421C14.6029 17.7482 14.6779 17.6606 14.6899 17.6474C14.7019 17.6343 14.7902 17.5306 14.886 17.4168C15.0856 17.18 15.1153 17.1453 15.2392 17.0027C15.2889 16.9456 15.3716 16.8488 15.4227 16.7878C15.4739 16.7267 15.5808 16.6006 15.6605 16.5075C15.7401 16.4144 15.8704 16.2613 15.9499 16.1674C16.0295 16.0735 16.1044 15.9859 16.1165 15.9728C16.1285 15.9596 16.2168 15.8559 16.3126 15.7421C16.4085 15.6285 16.5069 15.5121 16.5313 15.4837C16.5557 15.4553 16.6396 15.3577 16.7178 15.2668C16.7958 15.1758 16.869 15.0911 16.8803 15.0785C16.8917 15.0658 16.9894 14.9501 17.0974 14.8212C17.2054 14.6924 17.3357 14.5393 17.3869 14.481C17.438 14.4229 17.5217 14.3252 17.573 14.2641C17.6241 14.203 17.7032 14.11 17.7486 14.0575C17.7941 14.005 17.8733 13.9119 17.9244 13.8506C18.0112 13.7465 18.2605 13.4554 18.3069 13.4038C18.3183 13.3911 18.416 13.2754 18.5239 13.1465C18.632 13.0177 18.7622 12.8646 18.8135 12.8063C18.8646 12.7482 18.9483 12.6505 18.9996 12.5894C19.0507 12.5283 19.1298 12.4353 19.1752 12.3828C19.2207 12.3304 19.2999 12.2371 19.351 12.1757C19.4021 12.1143 19.4812 12.0213 19.5268 11.9691C19.5722 11.917 19.6526 11.8235 19.7054 11.7613C19.7581 11.6993 19.9241 11.5043 20.0742 11.328C20.2243 11.1517 20.3858 10.9617 20.4331 10.9056C20.4805 10.8496 20.5564 10.7606 20.6018 10.7081C20.6473 10.6557 20.7265 10.5624 20.7776 10.501C20.8287 10.4396 20.9078 10.3466 20.9534 10.2944C20.9988 10.2423 21.0792 10.1488 21.132 10.0866C21.1847 10.0246 21.3507 9.8296 21.5008 9.65333C21.6509 9.47705 21.8124 9.287 21.8597 9.23093C21.9071 9.17486 21.983 9.08592 22.0284 9.03344C22.0739 8.98097 22.1531 8.88768 22.2042 8.82627C22.2553 8.76487 22.3344 8.67196 22.38 8.61973C22.4254 8.56763 22.5057 8.47409 22.5586 8.41194C22.6113 8.34992 22.7773 8.15491 22.9274 7.97863C23.0775 7.80236 23.239 7.61231 23.2863 7.55624C23.5143 7.28593 23.5608 7.23507 23.6992 7.1042C24.3072 6.52971 25.2376 6.26201 26.0188 6.4368Z" fill="#00BA8B"/>
</svg>
