<svg width="34" height="33" viewBox="0 0 34 33" fill="none" xmlns="http://www.w3.org/2000/svg">
<path fill-rule="evenodd" clip-rule="evenodd" d="M16.2028 6.31167C16.0932 6.35123 16.0083 6.4297 15.9514 6.54404L15.8964 6.65433V10.2382V13.822L15.7009 13.8817C15.1102 14.0617 14.5157 14.5129 14.1451 15.0622C14.0857 15.1502 14.037 15.2322 14.037 15.2444C14.037 15.2565 14.0282 15.2664 14.0176 15.2664C14.0069 15.2664 13.9919 15.295 13.9843 15.3298C13.9765 15.3647 13.9616 15.3932 13.9508 15.3932C13.9401 15.3932 13.9314 15.4028 13.9314 15.4145C13.9314 15.4263 13.9133 15.4762 13.8912 15.5254C13.6136 16.1434 13.5801 16.9844 13.8064 17.6619C13.9945 18.2255 14.3468 18.7132 14.8293 19.078C14.9842 19.195 15.2988 19.3864 15.3363 19.3864C15.3483 19.3864 15.3922 19.4047 15.4338 19.4269C15.783 19.6141 16.5485 19.7155 17.0373 19.6395C17.2447 19.6071 17.4061 19.5743 17.4493 19.5556C17.4725 19.5455 17.5296 19.5258 17.5761 19.5116C17.6529 19.4882 17.8095 19.4237 17.9459 19.3589C17.9749 19.3452 18.0922 19.2741 18.2064 19.201C18.8126 18.8128 19.3356 18.1137 19.4739 17.5061C19.4805 17.477 19.4939 17.4199 19.5038 17.3793L19.5217 17.3053L22.0879 17.2947C24.9442 17.283 24.7339 17.2949 24.8725 17.137C24.9764 17.0186 24.9817 16.9897 24.9817 16.5341C24.9817 16.0788 24.9764 16.0495 24.8728 15.9316C24.7235 15.7613 24.9418 15.7735 22.0243 15.7735H19.4294L19.4149 15.7154C19.3869 15.6027 19.2041 15.2133 19.1563 15.1645C19.1413 15.1492 19.129 15.1271 19.129 15.1154C19.129 15.0945 18.9796 14.8917 18.8759 14.7719C18.7708 14.6505 18.4113 14.3159 18.3858 14.3158C18.3779 14.3157 18.3589 14.3034 18.3436 14.2884C18.3281 14.2734 18.2775 14.2383 18.2311 14.2103C18.1846 14.1823 18.1419 14.154 18.136 14.1476C18.1107 14.1192 17.7533 13.9518 17.6183 13.9053L17.4705 13.8542L17.4598 10.2221L17.4493 6.59019L17.391 6.50208C17.3589 6.45366 17.2931 6.38786 17.2447 6.35579L17.1567 6.29748L16.7114 6.29304C16.4331 6.29038 16.2423 6.29735 16.2028 6.31167ZM16.8455 15.2572C17.3317 15.3458 17.6767 15.5926 17.8989 16.0106C18.2547 16.6802 18.0384 17.4969 17.3965 17.9079C17.2338 18.0121 17.2043 18.0267 17.1211 18.0446C17.0808 18.0532 17.0345 18.071 17.0183 18.0841C16.959 18.1321 16.3896 18.1276 16.237 18.0781C16.1628 18.054 16.0941 18.0342 16.0844 18.0342C16.0337 18.0342 15.7252 17.8259 15.6063 17.7113C14.5955 16.738 15.4699 15.0067 16.8455 15.2572ZM27.1951 21.5855C27.0237 21.626 26.8497 21.7733 26.7554 21.958L26.7037 22.0591L26.6896 23.9685C26.6819 25.0186 26.6672 25.886 26.657 25.8962C26.6469 25.9065 25.8118 25.915 24.789 25.9153C23.5144 25.9157 22.9171 25.9232 22.8672 25.939C22.6334 26.0135 22.4755 26.1439 22.3846 26.3376L22.33 26.4538V27.0982V27.7427L22.3861 27.8621C22.4496 27.9977 22.594 28.1494 22.6763 28.1673C22.7067 28.174 22.7736 28.1927 22.8251 28.2092C22.9003 28.2333 23.1135 28.2391 23.915 28.2391C24.463 28.2391 25.3121 28.2455 25.8018 28.2532L26.6923 28.2672L26.698 30.1917C26.7044 32.358 26.6924 32.2003 26.8656 32.3921C27.0611 32.6086 27.1629 32.6334 27.8552 32.6334C28.601 32.6334 28.7883 32.5704 28.9341 32.2708C28.9585 32.2206 28.9871 32.163 28.9979 32.1429C29.0093 32.1213 29.0173 31.3124 29.0173 30.1833V28.2603H30.9299H32.8425L32.9741 28.2C33.1038 28.1405 33.2853 27.9823 33.2853 27.9287C33.2853 27.9135 33.2925 27.9012 33.3014 27.9012C33.3682 27.9012 33.3909 27.6909 33.3907 27.0743L33.3904 26.4538L33.3261 26.3271C33.2219 26.1215 33.1031 26.0192 32.8855 25.9471C32.7778 25.9115 32.6575 25.9099 30.8941 25.9193L29.0173 25.9293L29.0171 24.1104C29.017 22.2887 29.0111 22.1223 28.9406 21.9698C28.8747 21.8273 28.6332 21.6121 28.5093 21.5855C28.3816 21.5581 27.3112 21.5581 27.1951 21.5855Z" fill="#00BA8B"/>
<path fill-rule="evenodd" clip-rule="evenodd" d="M26.5466 25.1097C26.496 25.1667 26.4488 25.2226 26.4417 25.2338C26.4268 25.2574 26.0705 25.6445 25.9374 25.7819C25.8881 25.8329 25.8477 25.8788 25.8477 25.884C25.8477 25.8891 26.0283 25.8932 26.2491 25.8932H26.6505V25.4496C26.6505 25.2055 26.6478 25.0059 26.6445 25.0059C26.6413 25.0059 26.5971 25.0526 26.5466 25.1097Z" fill="#00BA8B"/>
<path opacity="0.5" fill-rule="evenodd" clip-rule="evenodd" d="M15.6006 0.741808C14.9553 0.784276 14.2331 0.875676 13.6356 0.99053C13.5484 1.00726 13.4201 1.03186 13.3504 1.04517C13.2013 1.07356 12.9509 1.13201 12.6742 1.20287C12.464 1.25675 12.001 1.38833 11.9559 1.40684C11.9326 1.41648 11.8423 1.44449 11.7551 1.46921C11.668 1.49381 11.5821 1.52182 11.5643 1.53133C11.5464 1.54084 11.4989 1.5558 11.4587 1.56442C11.4184 1.57304 11.3759 1.58736 11.3643 1.59636C11.3526 1.60524 11.3117 1.61931 11.273 1.62755C11.2345 1.63579 11.1774 1.65582 11.1462 1.67217C11.1152 1.6884 11.0776 1.70171 11.0629 1.70183C11.0482 1.70196 11.0197 1.71122 10.9995 1.7225C10.9681 1.74025 10.8477 1.78905 10.3289 1.99442C10.2825 2.0128 10.2397 2.0341 10.2338 2.0417C10.228 2.04918 10.1996 2.06287 10.1707 2.07187C10.0283 2.11637 9.17377 2.53433 8.90755 2.68975C8.82287 2.73906 8.74896 2.7795 8.74325 2.7795C8.73755 2.7795 8.69749 2.80181 8.65413 2.82894C8.61078 2.8562 8.53243 2.90247 8.4802 2.93201C8.30044 3.03304 7.98363 3.23258 7.97666 3.24906C7.97273 3.25806 7.96132 3.26541 7.95106 3.26541C7.9167 3.26541 7.39478 3.6248 6.96946 3.94135C6.71832 4.12833 6.17498 4.5686 6.12439 4.62628C6.11273 4.63947 6.07597 4.67141 6.04275 4.69702C5.8048 4.88058 4.93172 5.7487 4.63482 6.09694C4.5708 6.17186 4.50437 6.24767 4.48688 6.26541C4.46938 6.28316 4.36974 6.4022 4.26528 6.52986C4.16069 6.65764 4.05382 6.7858 4.02758 6.81483C4.00121 6.84374 3.97979 6.87391 3.97979 6.8819C3.97979 6.89001 3.96736 6.90902 3.95215 6.92436C3.92553 6.95124 3.62254 7.35437 3.55726 7.4497C3.53976 7.47518 3.51022 7.51625 3.49159 7.5411C3.42224 7.63326 3.1346 8.0625 3.1346 8.07378C3.1346 8.08025 3.11317 8.11574 3.08706 8.15276C3.06082 8.18978 3.02811 8.23909 3.01429 8.26229C3.00047 8.28549 2.92314 8.41391 2.84252 8.54752C2.70154 8.7809 2.59784 8.96573 2.48134 9.19189C2.4513 9.25008 2.42201 9.30231 2.41618 9.30814C2.39349 9.33083 2.09316 9.95517 1.97425 10.2272C1.94877 10.2853 1.91949 10.3518 1.90922 10.3752C1.89882 10.3984 1.8703 10.4649 1.84583 10.523C1.82124 10.5812 1.79246 10.6477 1.78181 10.6709C1.77116 10.6941 1.74289 10.7655 1.71906 10.8294C1.6951 10.8933 1.66696 10.9646 1.65643 10.9878C1.64591 11.011 1.60256 11.1299 1.55996 11.2519C1.51749 11.374 1.47439 11.4928 1.46412 11.5161C1.43344 11.5858 1.38159 11.7467 1.38121 11.7734C1.38109 11.7872 1.3698 11.8253 1.35624 11.858C1.34255 11.8907 1.31973 11.9555 1.3054 12.002C1.22921 12.2496 1.20614 12.3293 1.17977 12.4352C1.1638 12.4991 1.1354 12.6083 1.11677 12.6781C1.00799 13.0831 0.885913 13.6529 0.811244 14.1042C0.787157 14.2495 0.762564 14.3953 0.756605 14.4282C0.740885 14.5143 0.70932 14.7949 0.683838 15.0762C0.671795 15.2098 0.65037 15.3952 0.636425 15.4882C0.600549 15.7264 0.600296 17.6763 0.636045 17.9496C0.650497 18.0599 0.672175 18.2549 0.684092 18.3827C0.750647 19.0958 0.911775 19.9966 1.09597 20.6857C1.12703 20.802 1.16621 20.9493 1.18319 21.0132C1.23352 21.2042 1.24683 21.2507 1.28575 21.3724C1.44612 21.8741 1.59736 22.3095 1.65783 22.4435C1.67989 22.4922 1.69789 22.5423 1.69789 22.5547C1.69789 22.5776 1.70588 22.5964 1.76825 22.721C1.78764 22.7598 1.80349 22.8011 1.80349 22.8129C1.80349 22.8247 1.81705 22.8644 1.83366 22.901C1.87131 22.9843 1.94826 23.1586 2.02623 23.3374C2.10571 23.5195 2.56045 24.4165 2.64513 24.5584C2.68202 24.6199 2.71207 24.6786 2.71207 24.6887C2.71207 24.6989 2.71917 24.7103 2.72791 24.7142C2.74769 24.7229 2.8164 24.8355 2.83199 24.885C2.83846 24.9052 2.85215 24.922 2.86242 24.922C2.87269 24.922 2.88105 24.9343 2.88105 24.9494C2.88105 24.9644 2.92454 25.0428 2.97778 25.1237C3.0309 25.2044 3.10874 25.3276 3.1507 25.3974C3.19279 25.4671 3.23247 25.5288 3.23893 25.5347C3.24552 25.5405 3.3174 25.6451 3.39879 25.767C3.48005 25.8891 3.55206 25.9937 3.55865 25.9995C3.56524 26.0052 3.60087 26.0545 3.63776 26.1088C3.67478 26.1632 3.71699 26.2202 3.73182 26.2356C3.74665 26.251 3.79356 26.3128 3.83628 26.3727C3.87888 26.4328 3.92807 26.4994 3.94556 26.5207C3.96293 26.542 4.01148 26.6022 4.05332 26.6544C4.29507 26.9565 4.48219 27.1809 4.53835 27.2359C4.56231 27.2595 4.61961 27.326 4.66563 27.3838C4.79468 27.5461 5.73584 28.4793 6.00814 28.7149C6.14176 28.8305 6.25586 28.9304 6.26169 28.9368C6.26752 28.9431 6.31975 28.986 6.37794 29.0321C6.436 29.0782 6.48823 29.1208 6.49406 29.1269C6.49989 29.133 6.57127 29.1899 6.65253 29.2534C6.73391 29.317 6.81201 29.3786 6.82621 29.3904C6.88046 29.4356 6.90861 29.4568 6.98011 29.5066C7.02067 29.535 7.06479 29.568 7.07785 29.58C7.09091 29.592 7.12298 29.6161 7.14897 29.6335C7.17496 29.651 7.21654 29.6803 7.24138 29.6985C7.33532 29.7681 7.59077 29.9432 7.81465 30.0916C7.94243 30.1765 8.05856 30.2554 8.07263 30.2671C8.08657 30.2789 8.10369 30.2885 8.11041 30.2885C8.11713 30.2885 8.17215 30.3217 8.23249 30.3624C8.29283 30.4031 8.35432 30.4365 8.36902 30.4365C8.38373 30.4365 8.39564 30.446 8.39564 30.4575C8.39564 30.4692 8.40503 30.4787 8.41643 30.4787C8.42784 30.4787 8.4892 30.5119 8.55272 30.5526C8.61636 30.5933 8.67226 30.6266 8.67721 30.6266C8.68202 30.6266 8.7752 30.6771 8.88422 30.7387C8.99325 30.8004 9.12991 30.8741 9.18797 30.9025C9.24616 30.9309 9.29687 30.9612 9.30067 30.9699C9.3046 30.9787 9.31563 30.9858 9.32539 30.9858C9.33503 30.9858 9.48867 31.0559 9.66691 31.1416C9.84516 31.2272 10.0385 31.318 10.0965 31.3434C10.1546 31.3687 10.2212 31.398 10.2445 31.4083C10.2863 31.427 10.459 31.5002 10.5402 31.5336C10.6642 31.5849 11.0956 31.7489 11.2375 31.7989C11.2956 31.8193 11.3731 31.8492 11.4098 31.8652C11.4463 31.8811 11.4904 31.8943 11.5076 31.8943C11.5249 31.8943 11.5662 31.9085 11.5996 31.9259C11.6329 31.9432 11.6796 31.9574 11.7034 31.9576C11.7272 31.9576 11.7557 31.9658 11.7668 31.9758C11.7778 31.9858 11.8248 32.0042 11.8714 32.0165C11.9179 32.0289 12.0081 32.0547 12.072 32.0737C12.2117 32.1151 12.3793 32.1608 12.5369 32.2002C12.6008 32.2162 12.7102 32.2439 12.7799 32.2619C12.9731 32.3119 13.3505 32.3956 13.5511 32.433C13.6498 32.4515 13.7688 32.4754 13.8152 32.4865C13.9687 32.5226 14.5341 32.6007 14.8822 32.6339C15.0043 32.6455 15.1754 32.6656 15.2625 32.6786C15.4937 32.713 17.2683 32.7277 17.6817 32.6985C18.2221 32.6605 18.8774 32.5903 19.0657 32.5502C19.1179 32.5392 19.213 32.5241 19.277 32.5167C19.3409 32.5094 19.4265 32.4953 19.4672 32.4854C19.5077 32.4755 19.6266 32.452 19.7312 32.433C19.9318 32.3967 20.4821 32.2726 20.6609 32.2234C20.719 32.2074 20.8236 32.1788 20.8934 32.1598C20.9631 32.1407 21.0629 32.1124 21.1152 32.0965C21.1674 32.0807 21.2673 32.0512 21.3371 32.0311C21.6279 31.9469 22.4217 31.667 22.5624 31.5989C22.5858 31.5877 22.657 31.559 22.7209 31.535C22.7849 31.5112 22.8562 31.4829 22.8794 31.4723C22.9027 31.4616 22.9692 31.4325 23.0273 31.4076C23.1543 31.3533 23.2417 31.3136 23.4922 31.1963C23.8572 31.0256 24.3135 30.7909 24.3232 30.7692C24.3271 30.7605 24.3398 30.7534 24.3514 30.7534C24.3757 30.7534 24.9655 30.4183 24.9818 30.3954C24.9875 30.3873 25.0067 30.3752 25.0244 30.3688C25.0421 30.3623 25.1562 30.2918 25.2779 30.2121C25.3997 30.1325 25.515 30.0577 25.5341 30.0459C25.5842 30.0149 25.8927 29.8027 25.9459 29.7627C25.9707 29.7439 26.0123 29.7144 26.0383 29.6969C26.0643 29.6795 26.0965 29.6557 26.1096 29.6441C26.123 29.6325 26.1812 29.5903 26.2392 29.5505C26.3366 29.4834 26.3945 29.4383 26.5257 29.3272C26.5532 29.3039 26.5975 29.2699 26.624 29.2517C26.6823 29.2115 26.7022 28.9501 26.6797 28.5191L26.6663 28.2602H24.8287C23.2064 28.2602 22.9744 28.2561 22.8492 28.226L22.7072 28.1916L22.3131 28.3844C22.0963 28.4904 21.9146 28.5771 21.9094 28.5771C21.9041 28.5771 21.8398 28.6044 21.7663 28.6378C21.6929 28.6712 21.5853 28.7159 21.5272 28.7374C21.469 28.7587 21.3978 28.7885 21.3688 28.8033C21.3397 28.8182 21.3008 28.8304 21.2824 28.8305C21.264 28.8307 21.2432 28.8365 21.2361 28.8436C21.2241 28.8556 21.0222 28.9297 20.7559 29.0198C20.6176 29.0666 20.1801 29.1996 20.0165 29.2444C19.7838 29.3083 19.7491 29.3171 19.5622 29.3583C19.4577 29.3815 19.3292 29.4099 19.277 29.4215C19.1852 29.4418 19.116 29.4541 18.7276 29.5189C18.4418 29.5666 17.9309 29.6308 17.7241 29.645C17.6195 29.6523 17.4245 29.666 17.2909 29.6753C16.4715 29.733 15.0642 29.6336 14.185 29.456C13.8411 29.3864 13.5488 29.3222 13.3609 29.2747C13.0667 29.2005 12.3314 28.9677 12.1851 28.9025C12.1485 28.8863 12.1039 28.8729 12.086 28.8729C12.0681 28.8729 12.0481 28.8641 12.0414 28.8534C12.0348 28.8427 11.9989 28.8272 11.9616 28.819C11.9243 28.8109 11.8793 28.7962 11.8615 28.7864C11.8437 28.7765 11.7436 28.7341 11.639 28.6919C11.3673 28.5825 10.6791 28.2545 10.4135 28.108C10.0448 27.9046 9.12991 27.3319 9.07185 27.2681C9.06602 27.2618 9.02317 27.2306 8.97677 27.1989C8.93024 27.1672 8.86369 27.1174 8.82882 27.0883C8.73768 27.0125 8.73083 27.0072 8.64919 26.9507C8.60849 26.9225 8.57046 26.8943 8.56476 26.8878C8.55893 26.8813 8.48756 26.8223 8.40629 26.7565C8.32491 26.6905 8.22983 26.6116 8.19496 26.5808C8.1601 26.5501 8.07478 26.4757 8.00531 26.4155C7.57771 26.0441 7.06175 25.5144 6.6737 25.0481C6.39378 24.7117 6.35753 24.666 6.33775 24.6241C6.32723 24.602 6.31214 24.5839 6.30428 24.5839C6.2963 24.5839 6.25269 24.5292 6.20718 24.4624C6.16179 24.3956 6.11501 24.3293 6.10335 24.3153C6.09169 24.3011 6.07191 24.2772 6.05949 24.2621C6.04719 24.2471 5.93081 24.0733 5.801 23.8759C5.67131 23.6784 5.55544 23.5055 5.54365 23.4914C5.53186 23.4773 5.52223 23.4597 5.52223 23.4521C5.52223 23.4445 5.47583 23.3609 5.41929 23.2662C5.11643 22.7604 4.7583 22.0301 4.56307 21.5202C4.52073 21.41 4.478 21.305 4.46811 21.2872C4.4581 21.2694 4.44314 21.2236 4.43477 21.1854C4.42641 21.1473 4.40625 21.0905 4.3899 21.0593C4.37367 21.0281 4.36036 20.9906 4.36023 20.9759C4.36011 20.9613 4.35085 20.9328 4.33969 20.9125C4.32157 20.8802 4.28315 20.7622 4.16272 20.3688C3.98993 19.805 3.81853 18.9691 3.73588 18.2876C3.52721 16.5654 3.68504 14.6384 4.16272 13.0795C4.28075 12.694 4.32131 12.5687 4.33691 12.5401C4.34679 12.5223 4.36163 12.4765 4.36999 12.4383C4.37836 12.4002 4.39852 12.3434 4.41474 12.3122C4.4311 12.281 4.44441 12.2448 4.44454 12.2316C4.44454 12.2184 4.45886 12.1804 4.47623 12.147C4.4936 12.1137 4.5078 12.0717 4.50792 12.0537C4.50792 12.0357 4.51566 12.012 4.52491 12.001C4.53416 11.99 4.5637 11.9238 4.59058 11.8541C4.61733 11.7843 4.65587 11.6893 4.67628 11.6429C4.69669 11.5963 4.74042 11.4964 4.77351 11.421C4.85705 11.23 5.24929 10.4577 5.31787 10.3492C5.34893 10.3 5.37428 10.255 5.37428 10.2492C5.37428 10.2433 5.40762 10.1865 5.44819 10.123C5.48888 10.0594 5.52223 9.99827 5.52223 9.98699C5.52223 9.97584 5.52983 9.96341 5.53909 9.95961C5.54847 9.95568 5.59334 9.89077 5.63898 9.81522C5.80467 9.54051 6.3702 8.7411 6.47885 8.62815C6.49355 8.61281 6.54338 8.55323 6.58965 8.49555C6.63592 8.43799 6.6879 8.37562 6.70539 8.35699C6.72289 8.33835 6.78931 8.26216 6.85333 8.18762C7.10853 7.88971 7.57644 7.41268 7.88894 7.13189C7.98604 7.04479 8.08645 6.95441 8.11218 6.93121C8.18343 6.86694 8.24808 6.81268 8.36395 6.71988C8.42214 6.67349 8.47437 6.62962 8.4802 6.62265C8.50442 6.59324 9.11584 6.14017 9.26201 6.04319C9.3491 5.98551 9.42364 5.931 9.42744 5.92238C9.43137 5.91363 9.44253 5.90653 9.45229 5.90653C9.46218 5.90653 9.54128 5.85937 9.62825 5.80182C9.83844 5.66263 10.028 5.54714 10.1933 5.45751C10.2679 5.41707 10.3841 5.35407 10.4515 5.31743C10.6478 5.21082 11.1436 4.96298 11.2587 4.91392C11.3167 4.8892 11.3833 4.86043 11.4065 4.85003C11.4439 4.83342 11.544 4.79083 11.7129 4.71997C11.7419 4.70767 11.7943 4.6846 11.8291 4.6685C12.0227 4.57938 13.0536 4.23735 13.1286 4.23735C13.148 4.23735 13.1708 4.23038 13.1793 4.22189C13.1878 4.21327 13.244 4.19501 13.3043 4.18132C13.3645 4.1675 13.4755 4.14101 13.5511 4.1225C13.8149 4.05772 14.4934 3.92613 14.7449 3.89089C14.8844 3.87137 15.0602 3.84665 15.1357 3.83575C15.7933 3.74168 17.425 3.73623 18.0515 3.82599C18.0922 3.83182 18.1968 3.84551 18.2839 3.85641C18.6573 3.90332 19.0922 3.97976 19.4355 4.05899C19.5167 4.07775 19.6403 4.10577 19.7101 4.12123C19.7798 4.1367 19.8749 4.1599 19.9214 4.1727C19.9679 4.1855 20.0392 4.2049 20.0799 4.2158C20.2545 4.26258 20.4739 4.32609 20.513 4.34118C20.5362 4.35018 20.6645 4.39315 20.7983 4.43651C21.0282 4.51118 21.4484 4.66888 21.5938 4.73518C21.6304 4.75191 21.6658 4.7656 21.6724 4.7656C21.6791 4.7656 21.7394 4.79007 21.8065 4.81999C21.8737 4.84991 21.9571 4.88692 21.992 4.90213C22.1033 4.95094 22.7734 5.28168 22.7843 5.29322C22.7901 5.2993 22.8377 5.32643 22.89 5.35343C23.0495 5.43583 23.1115 5.4726 23.1188 5.4892C23.1228 5.49795 23.1357 5.50505 23.1476 5.50505C23.218 5.50505 24.3061 6.22485 24.5547 6.43592C24.5696 6.4486 24.6457 6.50793 24.7237 6.56763C24.8476 6.66258 24.9226 6.72432 25.011 6.80457C25.024 6.81623 25.0678 6.85312 25.1085 6.88646C25.476 7.18804 26.0725 7.78095 26.4396 8.20968C26.5035 8.28422 26.5701 8.36104 26.5875 8.38031C26.6615 8.46208 26.9676 8.84797 27.0629 8.97968C27.0862 9.01188 27.1147 9.04915 27.1262 9.06246C27.2104 9.15944 27.5953 9.74537 27.8002 10.0882C28.0773 10.5523 28.3198 11.0038 28.3199 11.0565C28.32 11.071 28.3296 11.0829 28.3412 11.0829C28.3528 11.0829 28.3623 11.0941 28.3623 11.1076C28.3623 11.1213 28.39 11.1902 28.4237 11.2608C28.4799 11.3782 28.5195 11.4666 28.6082 11.6746C28.6256 11.7151 28.6484 11.7675 28.6588 11.7907C28.6692 11.814 28.7119 11.9233 28.7537 12.0337C28.7957 12.1441 28.8383 12.2534 28.8486 12.2767C28.8765 12.3396 29.0481 12.8661 29.1 13.0478C29.1249 13.1351 29.154 13.2348 29.1647 13.2697C29.1898 13.3516 29.3213 13.89 29.3529 14.0408C29.4831 14.6611 29.5281 14.9859 29.6108 15.9002C29.7083 16.9777 29.5406 18.7515 29.2314 19.9146C29.1959 20.0482 29.1561 20.2003 29.1431 20.2525C29.13 20.3049 29.1119 20.3666 29.1026 20.39C29.0935 20.4132 29.0646 20.5035 29.0385 20.5906C28.975 20.8023 28.8707 21.1193 28.8474 21.1716C28.8372 21.1949 28.7915 21.309 28.746 21.4252L28.6634 21.6365L28.7722 21.7344C28.8353 21.791 28.9075 21.8843 28.9439 21.9562L29.0068 22.0802L29.0202 22.6084C29.0277 22.8989 29.0348 23.7604 29.0361 24.5228L29.0385 25.9089L29.2308 25.9235C29.3365 25.9314 29.5027 25.9314 29.5999 25.9236L29.7767 25.9093L29.8565 25.7906C29.9005 25.7253 29.9416 25.6673 29.9481 25.6614C29.9545 25.6556 29.9827 25.6129 30.0108 25.5663C30.0388 25.5198 30.0699 25.4723 30.0796 25.4607C30.1054 25.4302 30.433 24.9016 30.433 24.8904C30.433 24.8853 30.4834 24.7976 30.5452 24.6956C30.8153 24.249 31.2127 23.4482 31.4388 22.8951C31.4795 22.7955 31.5265 22.6841 31.5432 22.6475C31.5601 22.6108 31.5739 22.5676 31.5739 22.5513C31.5739 22.535 31.5819 22.5127 31.5917 22.5017C31.6015 22.4907 31.631 22.4198 31.6572 22.3442C31.6833 22.2687 31.7125 22.1879 31.7217 22.1647C31.7311 22.1414 31.7596 22.0607 31.7851 21.9851C31.8107 21.9095 31.8395 21.8288 31.8493 21.8055C31.859 21.7823 31.9019 21.6492 31.9446 21.5097C31.9872 21.3703 32.0354 21.2155 32.0515 21.1657C32.0677 21.1158 32.081 21.0611 32.081 21.0438C32.081 21.0267 32.0899 20.9962 32.1008 20.9759C32.1117 20.9557 32.1403 20.8537 32.1647 20.7491C32.1889 20.6445 32.2183 20.5256 32.23 20.485C32.2416 20.4443 32.261 20.3635 32.2729 20.3054C32.2849 20.2473 32.3074 20.1379 32.3231 20.0624C32.4382 19.5078 32.5392 18.8947 32.5768 18.5201C32.5831 18.4561 32.6027 18.2659 32.6202 18.0975C32.6881 17.4412 32.6819 15.9068 32.6085 15.2029C32.5848 14.9761 32.5494 14.6852 32.5378 14.6219C32.5334 14.5986 32.5233 14.5226 32.5151 14.4528C32.5004 14.328 32.4417 13.9816 32.3863 13.6922C32.3707 13.611 32.3481 13.492 32.3361 13.4282C32.324 13.3643 32.3002 13.2549 32.2829 13.1851C32.2658 13.1154 32.2473 13.0347 32.2419 13.0056C32.2364 12.9766 32.2066 12.8577 32.1756 12.7414C32.1446 12.6253 32.117 12.5207 32.1142 12.5091C32.0957 12.4312 32.0488 12.2694 31.9949 12.0971C31.9603 11.9867 31.9161 11.844 31.8964 11.7801C31.8769 11.7163 31.8542 11.6544 31.846 11.6429C31.8379 11.6312 31.8245 11.5859 31.8163 11.5422C31.8082 11.4985 31.7931 11.4575 31.7827 11.4512C31.7724 11.4448 31.7639 11.4235 31.7639 11.4039C31.7638 11.3842 31.7505 11.3427 31.7342 11.3115C31.7179 11.2803 31.698 11.225 31.69 11.1885C31.6821 11.1521 31.6623 11.0969 31.6459 11.0657C31.6297 11.0345 31.6164 10.997 31.6163 10.9823C31.6161 10.9676 31.6073 10.939 31.5963 10.9189C31.5854 10.8987 31.5127 10.7301 31.4345 10.5441C31.2191 10.0316 30.9589 9.48689 30.7482 9.10746C30.6902 9.00288 30.6314 8.89348 30.6174 8.86445C30.6036 8.83542 30.5871 8.80689 30.5808 8.80106C30.5744 8.79523 30.5457 8.74528 30.517 8.69014C30.4882 8.63499 30.4576 8.58974 30.4488 8.58974C30.4401 8.58974 30.433 8.57871 30.433 8.56527C30.433 8.54194 30.3956 8.47793 30.2254 8.20943C30.0539 7.9389 29.9581 7.79705 29.9425 7.79045C29.9334 7.78652 29.9259 7.77385 29.9259 7.76206C29.9259 7.75039 29.9091 7.71896 29.8889 7.69233C29.8686 7.66571 29.8376 7.62248 29.8201 7.59624C29.7821 7.53894 29.5335 7.1935 29.5088 7.16358C29.4993 7.15204 29.4118 7.03795 29.3145 6.91004C29.2171 6.78225 29.1081 6.64369 29.0721 6.60224C29.0362 6.56079 28.9878 6.50349 28.9644 6.47497C28.704 6.15563 28.427 5.85392 27.9601 5.38082C27.6861 5.10319 27.1288 4.58787 27.0578 4.54667C27.0405 4.53653 27.0101 4.51282 26.9902 4.49381C26.9702 4.47479 26.9309 4.44019 26.9026 4.41699C26.8743 4.39366 26.7979 4.32939 26.7327 4.27412C26.6022 4.16345 25.9944 3.71126 25.7745 3.56129C25.6978 3.50894 25.6236 3.45633 25.6095 3.44428C25.5955 3.43224 25.5459 3.39928 25.4994 3.37114C25.4528 3.34287 25.4023 3.30762 25.3869 3.29267C25.3716 3.27771 25.3462 3.26541 25.3306 3.26541C25.3149 3.26541 25.2989 3.25831 25.2951 3.24956C25.2863 3.22966 24.9804 3.03963 24.6754 2.86456C24.5476 2.79117 24.3906 2.70116 24.3267 2.6644C24.2628 2.62763 24.0203 2.50429 23.7879 2.39032C23.5556 2.27623 23.3402 2.16974 23.3093 2.15377C23.2784 2.13767 23.238 2.12448 23.2195 2.12448C23.201 2.12448 23.1858 2.11599 23.1858 2.10572C23.1858 2.09533 23.1626 2.081 23.1343 2.0739C23.091 2.06313 22.9582 2.00684 22.7526 1.91227C22.7294 1.90162 22.62 1.85928 22.5097 1.81821C22.3993 1.77714 22.2899 1.73441 22.2667 1.72338C22.2435 1.71223 22.1626 1.68345 22.087 1.65924C22.0115 1.63503 21.9352 1.60739 21.9174 1.59788C21.8995 1.58838 21.8523 1.57342 21.8125 1.56467C21.7725 1.55592 21.7252 1.54109 21.7075 1.53196C21.6738 1.51447 21.3658 1.41648 21.1469 1.35347C21.0772 1.33344 20.9773 1.30428 20.925 1.28869C20.8211 1.25763 20.598 1.19894 20.4813 1.17194C19.6449 0.978233 19.2414 0.907622 18.379 0.803671C17.6446 0.715059 16.4203 0.687804 15.6006 0.741808Z" fill="#00BA8B"/>
<path fill-rule="evenodd" clip-rule="evenodd" d="M28.7966 21.7749C28.842 21.8214 28.8839 21.8594 28.8897 21.8594C28.8955 21.8594 28.8632 21.8214 28.8178 21.7749C28.7724 21.7285 28.7305 21.6904 28.7246 21.6904C28.7189 21.6904 28.7513 21.7285 28.7966 21.7749ZM29.0281 23.8349C29.0281 24.2997 29.0309 24.4868 29.0343 24.2508C29.0378 24.0148 29.0378 23.6344 29.0343 23.4056C29.0309 23.1769 29.0281 23.3701 29.0281 23.8349ZM26.6604 25.2927C26.6604 25.4555 26.6638 25.5193 26.6678 25.4344C26.6718 25.3496 26.6718 25.2165 26.6678 25.1387C26.6637 25.0607 26.6604 25.1301 26.6604 25.2927ZM25.9715 25.9106C26.0445 25.9148 26.1586 25.9146 26.2251 25.9105C26.2914 25.9063 26.2317 25.903 26.0922 25.903C25.9528 25.903 25.8984 25.9064 25.9715 25.9106ZM29.0981 25.9314C29.1361 25.9361 29.1932 25.9359 29.2249 25.9311C29.2566 25.9263 29.2255 25.9225 29.1558 25.9226C29.0861 25.9228 29.0601 25.9267 29.0981 25.9314ZM29.6157 25.9313C29.6478 25.9361 29.6953 25.9359 29.7213 25.9309C29.7473 25.9259 29.7211 25.9219 29.6629 25.9221C29.6048 25.9223 29.5835 25.9263 29.6157 25.9313ZM23.1077 28.2558C23.1978 28.2598 23.3452 28.2598 23.4352 28.2558C23.5253 28.2519 23.4517 28.2486 23.2715 28.2486C23.0914 28.2486 23.0177 28.2519 23.1077 28.2558ZM26.6803 28.4092C26.6803 28.4963 26.684 28.5319 26.6886 28.4885C26.6931 28.4448 26.6931 28.3735 26.6886 28.33C26.684 28.2864 26.6803 28.322 26.6803 28.4092ZM26.6799 29.0641C26.6799 29.1397 26.6839 29.1706 26.6886 29.1328C26.6932 29.095 26.6932 29.0333 26.6886 28.9955C26.6839 28.9578 26.6799 28.9886 26.6799 29.0641Z" fill="#00BA8B"/>
<path fill-rule="evenodd" clip-rule="evenodd" d="M29.0285 25.3022C29.0285 25.6565 29.0314 25.8015 29.035 25.6243C29.0385 25.4471 29.0385 25.1572 29.035 24.9799C29.0314 24.8027 29.0285 24.9477 29.0285 25.3022ZM26.6569 25.7291L26.6527 25.8919L26.489 25.8991L26.3252 25.9064L26.4897 25.9105C26.6816 25.9156 26.6791 25.9184 26.6684 25.712L26.661 25.5662L26.6569 25.7291ZM24.0712 28.2548C24.3421 28.2582 24.7795 28.2582 25.0431 28.2548C25.3067 28.2515 25.085 28.2487 24.5504 28.2487C24.0158 28.2487 23.8002 28.2515 24.0712 28.2548Z" fill="#00BA8B"/>
</svg>
